<svg xmlns="http://www.w3.org/2000/svg" width="378.366" height="385.557" viewBox="0 0 378.366 385.557"><g transform="translate(-16.111 -8.222)"><circle cx="189.183" cy="189.183" r="189.183" transform="translate(16.111 15.413)" fill="#f2f2f2"/><path d="M280.549,121.81c0-57.685-47.1-74.447-75.255-74.447-28.394,0-74.915,14.6-74.915,74.447,0,58.587-23.976,55.533-22.074,88.767,3,52.494,48.188,64.713,97.159,64.713s94.154-12.219,97.159-64.713c1.9-33.234-22.074-30.18-22.074-88.767Z" fill="#835f5c"/><path d="M280.549,121.81c0-27.354-10.594-45.5-24.733-57.026,9.156,11.292,15.284,26.772,15.284,47.578,0,58.587,17.719,59,15.817,92.234-3.005,52.494-41.93,61.246-90.9,61.246-29.054,0-56.773-4.3-75.144-18.762,17.275,22.105,49.986,28.211,84.592,28.211,48.972,0,94.154-12.219,97.159-64.713,1.9-33.235-22.074-30.181-22.074-88.768Z" fill="#70514f"/><ellipse cx="62.375" cy="67.992" rx="62.375" ry="67.992" transform="translate(142.92 63.056)" fill="#ffe2b0"/><path d="M219.062,226.315l-13.531,12.6-14.005-12.6V192.4h27.536Z" fill="#f5d9a9"/><path d="M242.465,76.447l-50.808,28.194c7.655,35.583,59.278,46.8,59.278,46.8-10.7,22.858-33.393,38.153-55.091,38.153A58.782,58.782,0,0,1,158.673,176.2c11.425,14.008,28.072,22.842,46.62,22.842,34.448,0,62.375-30.441,62.375-67.992,0-22.367-9.91-42.209-25.2-54.6Z" fill="#f5d9a9"/><path d="M349.667,364.744a7.021,7.021,0,0,1-7,7H67.923a7.021,7.021,0,0,1-7-7v-.275a7.021,7.021,0,0,1,7-7H342.667a7.021,7.021,0,0,1,7,7ZM250.682,79.787c-16.676-18.247-39.653-19.446-56.09-16.732-16.859,2.784-47.532,17.047-51.9,57.659,0,0,29.274.821,48.966-16.072,11.2,19.933,33.157,40.777,76.012,40.777C267.669,145.418,276.356,107.881,250.682,79.787Z" fill="#835f5c"/><path d="M272.46,230.729c-16.169-3.861-54.781-16.69-54.781-16.69l-12.568,23.608-11.62-23.608s-44.085,13.055-59.651,18.887c-14.1,5.281-22.725,70.65-27.839,102.74-1.436,9.008,17.766,22.005,17.766,22.005H283.676s21.72-15.83,20.3-23.676C298.123,301.777,293.394,235.728,272.46,230.729Z" fill="#0d297a"/><path d="M191.526,209.315,176.9,219.705s11.159,5.43,28.337,17.942Z" fill="#fff"/><path d="M219.281,209.315l14.167,10.39s-11.863,5.43-28.337,17.942l14.17-28.332Z" fill="#fff"/><path d="M133.686,127.831c-.039-1.311-.709-32.353,19.758-53.432,11.944-12.3,28.613-18.538,49.542-18.538,38.17,0,56.255,19.59,64.7,36.024a86.409,86.409,0,0,1,9.221,35.9h-2.834a85.125,85.125,0,0,0-8.952-34.7c-11.775-22.824-32.683-34.4-62.139-34.4-20.134,0-36.119,5.947-47.509,17.678-19.641,20.228-18.968,51.065-18.959,51.375l-2.832.084Z" fill="#0d297a"/><path d="M294.571,340.363a6.716,6.716,0,0,1-6.7,6.7H122.715a6.717,6.717,0,0,1-6.7-6.7V249.972a6.715,6.715,0,0,1,6.7-6.7H287.876a6.715,6.715,0,0,1,6.7,6.7v90.391Z" fill="#7de7ff"/><path d="M287.875,243.276H281.5s-14.889,97.087-165.479,97.087a6.716,6.716,0,0,0,6.7,6.7H287.875a6.716,6.716,0,0,0,6.7-6.7V249.972a6.715,6.715,0,0,0-6.7-6.7Z" fill="#53cfeb"/><circle cx="20.014" cy="20.014" r="20.014" transform="translate(185.28 275.153)" fill="#fff"/><circle cx="10.601" cy="10.601" r="10.601" transform="translate(194.737 284.566)" fill="none" stroke="#ff8e1c" stroke-miterlimit="10" stroke-width="1"/><ellipse cx="10.599" cy="7.04" rx="10.599" ry="7.04" transform="translate(194.651 288.127)" fill="none" stroke="#ff8e1c" stroke-miterlimit="10" stroke-width="1"/><ellipse cx="10.599" cy="2.311" rx="10.599" ry="2.311" transform="translate(194.651 292.856)" fill="none" stroke="#ff8e1c" stroke-miterlimit="10" stroke-width="1"/><ellipse cx="7.04" cy="10.6" rx="7.04" ry="10.6" transform="translate(198.254 284.567)" fill="none" stroke="#ff8e1c" stroke-miterlimit="10" stroke-width="1"/><ellipse cx="2.31" cy="10.6" rx="2.31" ry="10.6" transform="translate(202.984 284.567)" fill="none" stroke="#ff8e1c" stroke-miterlimit="10" stroke-width="1"/><path d="M164.3,349.655c0,5.979-1.392,1.707-3.109,1.707H135.367c-1.717,0-3.109,3.371-3.109-1.707v-3.313a3.108,3.108,0,0,1,3.109-3.108H161.19a3.109,3.109,0,0,1,3.109,3.108Zm114.033,1.827c0,1.717-1.391,1.358-3.108,1.358H249.4c-1.718,0-3.108.479-3.108-1.239v-5.26a3.107,3.107,0,0,1,3.108-3.108h25.823a3.107,3.107,0,0,1,3.108,3.108v5.141Z" fill="#fff"/><path d="M294.571,353.562a3.907,3.907,0,0,1-3.906,3.907H119.925a3.907,3.907,0,0,1,0-7.813H290.664A3.905,3.905,0,0,1,294.571,353.562Z" fill="#7de7ff"/><path d="M187.078,190.329c-20.9,0-36.047-5.351-45.005-15.9-10.919-12.862-8.484-28.574-8.375-29.237l2.795.458c-.024.15-2.314,15.132,7.764,26.975,8.4,9.87,22.806,14.875,42.821,14.875v2.832Z" fill="#0d297a"/><path d="M142.377,150.806A18.7,18.7,0,0,1,123.671,132.1V130a18.7,18.7,0,0,1,18.706-18.706" fill="#ff8e1c"/><path d="M145.984,151.423a4.059,4.059,0,0,1-8.118,0v-40.75a4.06,4.06,0,0,1,8.118,0Z" fill="#0d297a"/><path d="M268.211,111.289a18.707,18.707,0,0,1,18.706,18.706v2.1a18.706,18.706,0,0,1-18.706,18.706" fill="#ff8e1c"/><path d="M277.092,113.53a18.621,18.621,0,0,1,4.153,11.741v2.1A18.713,18.713,0,0,1,268.211,145.2v5.6A18.706,18.706,0,0,0,286.917,132.1V130a18.7,18.7,0,0,0-9.825-16.465Z" fill="#ed841a"/><path d="M264.6,110.673a4.06,4.06,0,0,1,8.12,0v40.75a4.06,4.06,0,0,1-8.12,0v-40.75Z" fill="#0d297a"/><circle cx="7.497" cy="7.497" r="7.497" transform="translate(183.26 181.415)" fill="#0d297a"/><path d="M325.3,8.222a63.951,63.951,0,0,0-57.881,91.13l-20.1,38.393,38.4-15.373A63.937,63.937,0,1,0,325.3,8.222Z" fill="#ff6b17"/><path d="M380.885,40.573a63.931,63.931,0,0,1-100.83,68.571l-32.732,28.6,38.4-15.373a63.93,63.93,0,0,0,95.162-81.8Z" fill="#d35416"/><text transform="translate(304.037 103.688)" fill="#fff" font-size="87.78" font-family="Montserrat-ExtraBold, Montserrat" font-weight="800"><tspan x="0" y="0">?</tspan></text></g></svg>