<svg xmlns="http://www.w3.org/2000/svg" xmlns:xlink="http://www.w3.org/1999/xlink" width="100" height="100" viewBox="0 0 100 100"><defs><clipPath id="a"><rect width="100" height="100" transform="translate(473 1646)" fill="#0948b3" stroke="#707070" stroke-width="1"/></clipPath></defs><g transform="translate(-473 -1646)" clip-path="url(#a)"><g transform="translate(473 1659.377)"><path d="M514.49,223.8H426.875A6.2,6.2,0,0,0,420.682,230v60.861a6.2,6.2,0,0,0,6.193,6.193H514.49a6.2,6.2,0,0,0,6.193-6.193V230A6.2,6.2,0,0,0,514.49,223.8Zm3.145,67.054A3.138,3.138,0,0,1,514.49,294H426.875a3.138,3.138,0,0,1-3.145-3.145V230a3.138,3.138,0,0,1,3.145-3.145H514.49A3.138,3.138,0,0,1,517.634,230Z" transform="translate(-420.682 -223.803)" fill="#0948b3"/><path d="M517.223,246.13a1.507,1.507,0,0,0-1.5-1.5h-83.6a1.5,1.5,0,0,0,0,3h83.6A1.507,1.507,0,0,0,517.223,246.13Z" transform="translate(-423.996 -230.745)" fill="#0948b3"/><circle cx="1.935" cy="1.935" r="1.935" transform="translate(8.757 6.628)" fill="#0948b3"/><circle cx="1.935" cy="1.935" r="1.935" transform="translate(15.965 6.628)" fill="#0948b3"/><circle cx="1.935" cy="1.935" r="1.935" transform="translate(23.125 6.628)" fill="#0948b3"/><path d="M525.472,290.421a9.289,9.289,0,1,0,9.289,9.289A9.291,9.291,0,0,0,525.472,290.421Zm0,15.53a6.289,6.289,0,1,1,6.289-6.289A6.308,6.308,0,0,1,525.472,305.951Z" transform="translate(-452.516 -246.009)" fill="#0948b3"/><path d="M531.06,262.942A5.553,5.553,0,0,0,527,264.635a2.757,2.757,0,0,1-4.693-1.984,5.771,5.771,0,0,0-5.757-5.757h-4.354a5.813,5.813,0,0,0-5.806,5.757,2.757,2.757,0,0,1-4.693,1.984,5.714,5.714,0,0,0-4.064-1.693,5.632,5.632,0,0,0-4.064,1.693l-3.1,3.1a5.752,5.752,0,0,0,0,8.176,2.757,2.757,0,0,1-1.984,4.693,5.771,5.771,0,0,0-5.757,5.757v4.354a5.771,5.771,0,0,0,5.757,5.757,2.731,2.731,0,0,1,2.564,1.693,2.669,2.669,0,0,1-.581,3,1.519,1.519,0,0,0,0,2.129,1.518,1.518,0,0,0,2.129,0,5.781,5.781,0,0,0-4.064-9.869,2.788,2.788,0,0,1-2.758-2.758v-4.354a2.788,2.788,0,0,1,2.758-2.758,5.781,5.781,0,0,0,4.064-9.869,2.745,2.745,0,0,1,0-3.87l3.1-3.1a2.688,2.688,0,0,1,3.87,0,5.66,5.66,0,0,0,6.289,1.258,5.731,5.731,0,0,0,3.58-5.322,2.788,2.788,0,0,1,2.758-2.758h4.354a2.788,2.788,0,0,1,2.758,2.758,5.781,5.781,0,0,0,9.869,4.064,2.745,2.745,0,0,1,3.87,0,1.505,1.505,0,0,0,2.129-2.129A5.9,5.9,0,0,0,531.06,262.942Z" transform="translate(-441.364 -234.833)" fill="#0948b3"/></g></g></svg>