<svg xmlns="http://www.w3.org/2000/svg" xmlns:xlink="http://www.w3.org/1999/xlink" width="100" height="100" viewBox="0 0 100 100"><defs><clipPath id="a"><rect width="100" height="100" transform="translate(810 1646)" fill="#0948b3" stroke="#707070" stroke-width="1"/></clipPath></defs><g transform="translate(-810 -1646)" clip-path="url(#a)"><g transform="translate(814.843 1646)"><path d="M453.865,338h6.107a1.574,1.574,0,0,0,0-3.149h-6.107a1.588,1.588,0,0,0-1.574,1.574A1.558,1.558,0,0,0,453.865,338Z" transform="translate(-431.632 -245.11)" fill="#0948b3"/><path d="M503.936,200.239H452.5a7.719,7.719,0,0,0-7.681,7.586H430.415a8.939,8.939,0,0,0-8.922,8.922V283.3a2,2,0,0,0-.191.716,1.769,1.769,0,0,0,.191.716v6.584a8.939,8.939,0,0,0,8.922,8.922h32.347a8.939,8.939,0,0,0,8.922-8.922V265.983a1.574,1.574,0,0,0-3.149,0V282.4H424.69V220.658h20.134v27.624a7.657,7.657,0,0,0,7.681,7.586h2.052L450.6,266.46a1.55,1.55,0,0,0,.429,1.718,1.48,1.48,0,0,0,1.05.429,1.524,1.524,0,0,0,.668-.143l26.574-12.6h24.618a7.626,7.626,0,0,0,7.681-7.586V207.92A7.676,7.676,0,0,0,503.936,200.239Zm-35.4,85.305v5.725a5.793,5.793,0,0,1-5.773,5.773H430.415a5.793,5.793,0,0,1-5.773-5.773v-5.725ZM444.823,217.51H424.69V216.7a5.793,5.793,0,0,1,5.773-5.773h14.361Zm63.645,30.773a4.429,4.429,0,0,1-4.485,4.389H479.031a1.524,1.524,0,0,0-.668.143l-23.378,11.069,3.387-9.113a1.568,1.568,0,0,0-1.479-2.1h-4.342a4.471,4.471,0,0,1-4.532-4.389V207.92a4.561,4.561,0,0,1,4.532-4.532h51.479a4.583,4.583,0,0,1,4.485,4.532v40.363Z" transform="translate(-421.302 -200.239)" fill="#0948b3"/><circle cx="2.385" cy="2.385" r="2.385" transform="translate(41.174 24.905)" fill="#0948b3"/><circle cx="2.385" cy="2.385" r="2.385" transform="translate(53.34 24.905)" fill="#0948b3"/><circle cx="2.385" cy="2.385" r="2.385" transform="translate(65.506 24.905)" fill="#0948b3"/></g></g></svg>