<svg xmlns="http://www.w3.org/2000/svg" xmlns:xlink="http://www.w3.org/1999/xlink" width="617" height="468" viewBox="0 0 617 468"><defs><clipPath id="a"><rect width="617" height="468" transform="translate(250 4015)" fill="#fff" stroke="#707070" stroke-width="1"/></clipPath><linearGradient id="b" x1="-4.326" y1="4.526" x2="-3.327" y2="4.526" gradientUnits="objectBoundingBox"><stop offset="0" stop-color="#ebe9eb"/><stop offset="1" stop-color="#9aa7d5"/></linearGradient><linearGradient id="c" x1="-3.074" y1="6.192" x2="-2.074" y2="6.192" gradientUnits="objectBoundingBox"><stop offset="0" stop-color="#fff"/><stop offset="1" stop-color="#9aa7d5"/></linearGradient><linearGradient id="d" x1="-12.945" y1="13.325" x2="-11.944" y2="13.325" gradientUnits="objectBoundingBox"><stop offset="0" stop-color="#d4daed"/><stop offset="1" stop-color="#9aa7d5"/></linearGradient><linearGradient id="e" x1="-10.638" y1="13.589" x2="-9.638" y2="13.589" gradientUnits="objectBoundingBox"><stop offset="0" stop-color="#49486b"/><stop offset="0.2" stop-color="#4e4f78"/><stop offset="0.71" stop-color="#595d94"/><stop offset="1" stop-color="#5d629e"/></linearGradient><linearGradient id="f" x1="-6.297" y1="11.032" x2="-5.297" y2="11.032" gradientUnits="objectBoundingBox"><stop offset="0" stop-color="#d2d9eb"/><stop offset="0.55" stop-color="#afbbdf"/><stop offset="1" stop-color="#99a6d4"/></linearGradient></defs><g transform="translate(-250 -4015)" clip-path="url(#a)"><g transform="translate(336.252 3974.285)"><path d="M288.281,240.938l137.806,78.683a4.432,4.432,0,0,1,1.778,6,4.549,4.549,0,0,1-1.778,1.778L211.6,451.2a18.1,18.1,0,0,1-17.781,0L56.011,372.521a4.432,4.432,0,0,1-1.778-6,4.549,4.549,0,0,1,1.778-1.778l214.711-123.8a17.68,17.68,0,0,1,17.559,0Z" fill="#7d7791" opacity="0.634"/><path d="M288.281,241.16l137.361,78.461a4.432,4.432,0,0,1,1.778,6,4.549,4.549,0,0,1-1.778,1.778L211.821,450.981a17.68,17.68,0,0,1-17.559,0L56.9,372.521a4.432,4.432,0,0,1-1.778-6,4.549,4.549,0,0,1,1.778-1.778L270.722,241.383a17.15,17.15,0,0,1,17.559-.222Z" fill="#79748e" opacity="0.659"/><path d="M288.059,241.16,424.976,319.4a4.182,4.182,0,0,1,1.556,6,3.5,3.5,0,0,1-1.556,1.556L211.821,449.87a17.68,17.68,0,0,1-17.559,0L57.345,371.632a4.182,4.182,0,0,1-1.556-6,3.5,3.5,0,0,1,1.556-1.556L270.5,241.16A17.68,17.68,0,0,1,288.059,241.16Z" fill="#76708b" opacity="0.683"/><path d="M287.837,241.383,424.309,319.4a4.224,4.224,0,0,1,1.556,6,3.5,3.5,0,0,1-1.556,1.556L211.821,449.648a17.68,17.68,0,0,1-17.559,0L57.79,371.632a4.224,4.224,0,0,1-1.556-6,3.5,3.5,0,0,1,1.556-1.556L270.278,241.383a17.681,17.681,0,0,1,17.559,0Z" fill="#726d88" opacity="0.707"/><path d="M287.837,241.6,423.865,319.4a4.224,4.224,0,0,1,1.556,6,5.193,5.193,0,0,1-1.556,1.556L212.043,449.2a17.68,17.68,0,0,1-17.559,0L58.456,371.409a4.224,4.224,0,0,1-1.556-6,5.193,5.193,0,0,1,1.556-1.556L270.277,241.6a17.68,17.68,0,0,1,17.559,0Z" fill="#6f6986" opacity="0.732"/><path d="M287.614,241.6,423.2,319.176a4.409,4.409,0,0,1,1.556,6,5.192,5.192,0,0,1-1.556,1.556l-211.154,121.8a17.266,17.266,0,0,1-17.337,0L59.123,371.187a4.409,4.409,0,0,1-1.556-6,5.193,5.193,0,0,1,1.556-1.556l211.154-121.8a17.824,17.824,0,0,1,17.337-.222Z" fill="#6b6683" opacity="0.756"/><path d="M287.392,241.827l135.139,77.349a4.625,4.625,0,0,1,1.556,6,5.193,5.193,0,0,1-1.556,1.556L212.266,448.092a17.266,17.266,0,0,1-17.337,0L59.79,370.743a4.409,4.409,0,0,1-1.556-6,5.193,5.193,0,0,1,1.556-1.556L270.055,241.827a17.265,17.265,0,0,1,17.337,0Z" fill="#686380" opacity="0.78"/><path d="M287.392,241.827l134.694,76.9a4.847,4.847,0,0,1,1.556,6.224,5.192,5.192,0,0,1-1.556,1.556l-209.6,120.914a17.266,17.266,0,0,1-17.337,0L60.457,370.52A4.847,4.847,0,0,1,58.9,364.3a5.193,5.193,0,0,1,1.556-1.556l209.6-120.914a18.419,18.419,0,0,1,17.337,0Z" fill="#64607e" opacity="0.805"/><path d="M287.17,242.05l134.25,76.9a4.563,4.563,0,0,1,1.334,6.223,3.774,3.774,0,0,1-1.334,1.334L212.488,447.2a17.266,17.266,0,0,1-17.337,0L60.9,370.52a4.563,4.563,0,0,1-1.334-6.224,3.774,3.774,0,0,1,1.334-1.334L269.833,242.272A16.756,16.756,0,0,1,287.17,242.05Z" fill="#615d7b" opacity="0.829"/><path d="M286.948,242.272l133.805,76.46a4.563,4.563,0,0,1,1.334,6.224,3.774,3.774,0,0,1-1.334,1.334L212.488,446.536a16.855,16.855,0,0,1-17.115,0L61.79,370.3a4.563,4.563,0,0,1-1.334-6.224,3.774,3.774,0,0,1,1.334-1.334L270.055,242.494a15.962,15.962,0,0,1,16.892-.222Z" fill="#5d5a79" opacity="0.854"/><path d="M286.725,242.272,420.086,318.51a4.107,4.107,0,0,1,1.556,5.779,3.5,3.5,0,0,1-1.556,1.556L212.71,445.647a16.855,16.855,0,0,1-17.115,0L62.235,369.409a4.107,4.107,0,0,1-1.556-5.779,3.5,3.5,0,0,1,1.556-1.556l207.376-119.8a16.855,16.855,0,0,1,17.115,0Z" fill="#5a5776" opacity="0.878"/><path d="M286.725,242.494l132.916,75.793a4.107,4.107,0,0,1,1.556,5.779,3.5,3.5,0,0,1-1.556,1.556L212.932,444.98a16.855,16.855,0,0,1-17.115,0L62.9,368.964a4.107,4.107,0,0,1-1.556-5.779A3.5,3.5,0,0,1,62.9,361.63L269.611,242.272A17.4,17.4,0,0,1,286.725,242.494Z" fill="#565474" opacity="0.902"/><path d="M286.5,242.716l132.472,75.571a4.107,4.107,0,0,1,1.556,5.779,3.5,3.5,0,0,1-1.556,1.556L212.932,444.535a16.855,16.855,0,0,1-17.115,0L63.346,368.964a4.107,4.107,0,0,1-1.556-5.779,3.5,3.5,0,0,1,1.556-1.556L269.388,242.716a16.855,16.855,0,0,1,17.115,0Z" fill="#535172" opacity="0.927"/><path d="M286.281,242.716l131.8,75.349a4.3,4.3,0,0,1,1.556,5.779,3.5,3.5,0,0,1-1.556,1.556L212.71,443.869a16.449,16.449,0,0,1-16.892,0L64.013,368.52a4.3,4.3,0,0,1-1.556-5.779,3.5,3.5,0,0,1,1.556-1.556L269.388,242.716a17.541,17.541,0,0,1,16.892,0Z" fill="#4f4e6f" opacity="0.951"/><path d="M286.281,242.939l131.36,75.126a4.3,4.3,0,0,1,1.556,5.779,5.193,5.193,0,0,1-1.556,1.556L213.155,443.424a16.451,16.451,0,0,1-16.892,0L64.9,368.3a4.3,4.3,0,0,1-1.556-5.779,5.193,5.193,0,0,1,1.556-1.556L269.388,242.939a16.449,16.449,0,0,1,16.892,0Z" fill="#4c4b6d" opacity="0.976"/><path d="M286.059,242.939l130.916,74.9a4.3,4.3,0,0,1,1.556,5.779,5.193,5.193,0,0,1-1.556,1.556L212.932,442.98a17.541,17.541,0,0,1-16.892,0l-130.916-74.9a4.3,4.3,0,0,1-1.556-5.779,5.193,5.193,0,0,1,1.556-1.556l204.042-117.8a17.543,17.543,0,0,1,16.892,0Z" fill="#49486b"/><path d="M46.009,171.813,272.056,41.342a4.5,4.5,0,0,1,6.223,1.778,4.288,4.288,0,0,1,.667,2.223V215.6a10.374,10.374,0,0,1-4.89,8.668L47.788,354.739a4.5,4.5,0,0,1-6.223-1.778,4.289,4.289,0,0,1-.667-2.223V180.259a10.213,10.213,0,0,1,5.112-8.446Z" fill="url(#b)"/><path d="M48.9,173.591,274.945,43.12a4.5,4.5,0,0,1,6.224,1.778,4.289,4.289,0,0,1,.667,2.223V217.6a10.374,10.374,0,0,1-4.89,8.668L50.9,356.74a4.5,4.5,0,0,1-6.223-1.778,4.289,4.289,0,0,1-.667-2.223V182.26a9.885,9.885,0,0,1,4.89-8.668Z" fill="#49486b"/><path d="M57.345,184.482,270.055,60.9v155.81L57.345,340.292Z" fill="#fff"/><path d="M290.948,234.27l144.7,76.46s.889,11.336-2.223,13.114L211.6,451.87a17.856,17.856,0,0,1-18.226,0L50.9,370.52c-5.779-3.556-2.223-13.114-2.223-13.114L272.722,234.492a17.359,17.359,0,0,1,18.226-.222Z" fill="url(#c)"/><path d="M290.948,225.6l142.474,81.35a4.694,4.694,0,0,1,1.778,6.223,6.765,6.765,0,0,1-1.778,1.778L211.6,442.98a17.856,17.856,0,0,1-18.226,0L50.9,361.63a4.694,4.694,0,0,1-1.778-6.224,6.764,6.764,0,0,1,1.778-1.778L272.722,225.6a17.855,17.855,0,0,1,18.226,0Z" fill="#f7f7f7"/><path d="M303.618,330.957l37.563,21.56a1.222,1.222,0,0,1,.667,1.556l-.667.667-58.456,33.785a4.816,4.816,0,0,1-4.89,0l-37.563-21.782a1.222,1.222,0,0,1-.667-1.556l.667-.667,58.456-33.785a5.429,5.429,0,0,1,4.89.222Z" fill="#e3e7f3"/><path d="M275.39,238.049l-12.225,7.113c-.445.222-.445.667-.222,1.111l.222.222,6,3.556a1.9,1.9,0,0,0,1.556,0l12.225-7.113c.445-.222.445-.667.222-1.111l-.222-.222-6-3.556A1.879,1.879,0,0,0,275.39,238.049Z" fill="#d4daed"/><path d="M257.386,248.718l-12.225,7.113c-.445.222-.445.667-.222,1.111l.222.222,6,3.556a1.9,1.9,0,0,0,1.556,0l12.225-7.113c.445-.222.445-.667.222-1.111l-.222-.222-6-3.556A1.9,1.9,0,0,0,257.386,248.718Z" fill="#d4daed"/><path d="M239.382,258.72l-12.225,7.113c-.445.222-.445.667-.222,1.111l.222.222,6,3.556a1.9,1.9,0,0,0,1.556,0l12.225-7.113c.445-.222.445-.667.222-1.111l-.222-.222-6-3.556A1.88,1.88,0,0,0,239.382,258.72Z" fill="#d4daed"/><path d="M220.712,269.388,208.487,276.5c-.445.222-.445.667-.222,1.111l.222.222,6,3.556a1.9,1.9,0,0,0,1.556,0l12.225-7.113c.445-.222.445-.667.222-1.111l-.222-.222-6-3.556A1.074,1.074,0,0,0,220.712,269.388Z" fill="#d4daed"/><path d="M202.708,279.391,190.483,286.5c-.445.222-.445.667-.222,1.111l.222.222,6.223,3.556a1.9,1.9,0,0,0,1.556,0l12.225-7.113c.445-.222.445-.667.222-1.111l-.222-.222-6-3.556a1.344,1.344,0,0,0-1.778,0Z" fill="#d4daed"/><path d="M185.371,289.837l-12.225,7.113c-.445.222-.445.667-.222,1.111l.222.222,6,3.556a1.9,1.9,0,0,0,1.556,0l12.225-7.113c.445-.222.445-.667.222-1.111l-.222-.222-6-3.556A1.9,1.9,0,0,0,185.371,289.837Z" fill="#d4daed"/><path d="M167.368,300.061l-12.225,7.113c-.445.222-.445.667-.222,1.111l.222.222,6,3.556a1.9,1.9,0,0,0,1.556,0l12.225-7.113c.445-.222.445-.667.222-1.111l-.222-.222-6-3.556A1.9,1.9,0,0,0,167.368,300.061Z" fill="#d4daed"/><path d="M149.364,310.73l-12.225,7.113c-.445.222-.445.667-.222,1.111l.222.222,6,3.556a1.9,1.9,0,0,0,1.556,0l12.225-7.113c.445-.222.445-.667.222-1.111l-.222-.222-6-3.556A1.9,1.9,0,0,0,149.364,310.73Z" fill="#d4daed"/><path d="M131.8,321.177l-12.225,7.113c-.445.222-.445.667-.222,1.111l.222.222,6,3.556a1.9,1.9,0,0,0,1.556,0l12.225-7.113c.445-.222.445-.667.222-1.111l-.222-.222-6-3.556A1.074,1.074,0,0,0,131.8,321.177Z" fill="#d4daed"/><path d="M113.134,331.846l-12.225,7.113c-.445.222-.445.667-.222,1.111l.222.222,6,3.556a1.9,1.9,0,0,0,1.556,0l12.225-7.113c.445-.222.445-.667.222-1.111l-.222-.222-6-3.556A1.074,1.074,0,0,0,113.134,331.846Z" fill="#d4daed"/><path d="M95.131,341.848,82.906,348.96c-.445.222-.445.667-.222,1.111l.222.222,6,3.556a1.9,1.9,0,0,0,1.556,0l12.225-6.89c.445-.222.445-.667.222-1.111l-.222-.222-6-3.556a1.369,1.369,0,0,0-1.556-.222Z" fill="#d4daed"/><path d="M300.284,251.385l-8.224-4.89a3.411,3.411,0,0,0-3.556,0l-8,4.668a1.788,1.788,0,0,0-.667,2.445l.667.667,8,4.89a3.411,3.411,0,0,0,3.556,0l8.224-4.668a1.788,1.788,0,0,0,.667-2.445Q300.617,251.385,300.284,251.385Z" fill="#d4daed"/><path d="M281.613,262.054l-8.224-4.89a3.411,3.411,0,0,0-3.556,0l-8.224,4.668a1.788,1.788,0,0,0-.667,2.445l.667.667,8,5.112a3.411,3.411,0,0,0,3.556,0l8.446-4.89a1.788,1.788,0,0,0,.667-2.445q0-.333-.667-.667Z" fill="#d4daed"/><path d="M263.609,272.056l-8.224-4.89a3.411,3.411,0,0,0-3.556,0l-8.224,4.668a1.788,1.788,0,0,0-.667,2.445l.667.667,8,4.89a3.411,3.411,0,0,0,3.556,0l8.446-4.89a1.788,1.788,0,0,0,.667-2.445,2.751,2.751,0,0,0-.667-.445Z" fill="#d4daed"/><path d="M244.272,282.725l-8.224-4.89a3.411,3.411,0,0,0-3.556,0l-8,4.668a1.788,1.788,0,0,0-.667,2.445l.667.667,8,4.89a3.411,3.411,0,0,0,3.556,0l8.446-4.668a1.788,1.788,0,0,0,.667-2.445c-.222-.445-.445-.667-.889-.667Z" fill="#d4daed"/><path d="M227.38,292.727l-8.224-4.89a3.411,3.411,0,0,0-3.556,0l-8.224,4.668a1.788,1.788,0,0,0-.667,2.445l.667.667,8.224,4.89a3.411,3.411,0,0,0,3.556,0l8.446-4.668a1.788,1.788,0,0,0,.667-2.445c-.445-.445-.445-.667-.889-.667Z" fill="#d4daed"/><path d="M210.265,303.173l-8.224-4.89a3.411,3.411,0,0,0-3.556,0l-8.224,4.668a1.788,1.788,0,0,0-.667,2.445l.667.667,8,4.89a3.411,3.411,0,0,0,3.556,0l8.446-4.668a1.788,1.788,0,0,0,.667-2.445l-.667-.667Z" fill="#d4daed"/><path d="M191.817,313.4l-8.224-4.89a3.411,3.411,0,0,0-3.556,0l-8.224,4.668a1.788,1.788,0,0,0-.667,2.445l.667.667,8,4.89a3.411,3.411,0,0,0,3.556,0l8.446-4.668a1.788,1.788,0,0,0,.667-2.445l-.667-.667Z" fill="#d4daed"/><path d="M173.813,323.622l-8.224-4.89a3.411,3.411,0,0,0-3.556,0l-8.224,4.668a1.788,1.788,0,0,0-.667,2.445l.667.667,8,4.89a3.411,3.411,0,0,0,3.556,0l8.446-4.668a1.578,1.578,0,0,0,.445-2.445,2.751,2.751,0,0,0-.445-.667Z" fill="#d4daed"/><path d="M156.032,334.513l-8.224-4.89a3.411,3.411,0,0,0-3.556,0l-8.224,4.668a1.788,1.788,0,0,0-.667,2.445l.667.667,8,5.112a3.411,3.411,0,0,0,3.556,0l8.446-4.668a1.788,1.788,0,0,0,.667-2.445c-.222-.445-.222-.667-.667-.889Z" fill="#d4daed"/><path d="M136.695,345.849l-8.446-4.89a3.411,3.411,0,0,0-3.556,0l-8.224,4.668a1.788,1.788,0,0,0-.667,2.445l.667.667,8,4.89a3.411,3.411,0,0,0,3.556,0l8.446-4.668a1.788,1.788,0,0,0,.667-2.445c0-.445-.222-.667-.445-.667Z" fill="#d4daed"/><path d="M119.358,355.184l-8.224-4.89a3.411,3.411,0,0,0-3.556,0l-8.224,4.668a1.788,1.788,0,0,0-.667,2.445l.667.667,8,4.89a3.411,3.411,0,0,0,3.556,0l8.446-4.668a1.788,1.788,0,0,0,.667-2.445q0-.333-.667-.667Z" fill="#d4daed"/><path d="M318.732,261.387l-8.446-4.89a3.411,3.411,0,0,0-3.556,0l-8.224,4.668a1.788,1.788,0,0,0-.667,2.445l.667.667,8,4.89a3.411,3.411,0,0,0,3.556,0l8.446-4.89a1.788,1.788,0,0,0,.667-2.445l-.445-.445Z" fill="#d4daed"/><path d="M300.284,272.056l-8.446-4.89a3.411,3.411,0,0,0-3.556,0l-8.224,4.668a1.788,1.788,0,0,0-.667,2.445l.667.667,8,4.89a3.411,3.411,0,0,0,3.556,0l8.446-4.89a1.788,1.788,0,0,0,.667-2.445l-.445-.445Z" fill="#d4daed"/><path d="M282.058,282.28l-8.446-4.89a3.411,3.411,0,0,0-3.556,0l-8.224,4.668a1.788,1.788,0,0,0-.667,2.445l.667.667,8.224,4.89a3.411,3.411,0,0,0,3.556,0l8.224-4.668a1.788,1.788,0,0,0,.667-2.445C282.5,282.725,282.28,282.5,282.058,282.28Z" fill="#d4daed"/><path d="M262.943,292.727l-8.224-4.89a3.411,3.411,0,0,0-3.556,0l-8.224,4.668a1.788,1.788,0,0,0-.667,2.445l.667.667,8,4.89a3.411,3.411,0,0,0,3.556,0l8.446-4.89a1.788,1.788,0,0,0,.667-2.445c-.445,0-.445-.222-.667-.445Z" fill="#d4daed"/><path d="M245.828,302.729l-8.446-4.89a3.411,3.411,0,0,0-3.556,0l-8.224,4.668a1.788,1.788,0,0,0-.667,2.445l.667.667,8,4.89a3.411,3.411,0,0,0,3.556,0l8.446-4.668a1.788,1.788,0,0,0,.667-2.445c0-.445-.222-.667-.445-.667Z" fill="#d4daed"/><path d="M228.491,313.4l-8.224-4.89a3.411,3.411,0,0,0-3.556,0l-8.224,4.668a1.788,1.788,0,0,0-.667,2.445l.667.667,8.224,4.89a3.411,3.411,0,0,0,3.556,0l8.224-4.668a1.788,1.788,0,0,0,.667-2.445Q229.158,313.731,228.491,313.4Z" fill="#d4daed"/><path d="M210.265,323.4l-8.224-4.89a3.411,3.411,0,0,0-3.556,0l-8.224,4.668a1.788,1.788,0,0,0-.667,2.445l.667.667,8,5.112a3.411,3.411,0,0,0,3.556,0l8.446-4.668a1.788,1.788,0,0,0,.667-2.445c-.222-.445-.222-.667-.667-.889Z" fill="#d4daed"/><path d="M192.262,333.624l-8.224-4.89a3.411,3.411,0,0,0-3.556,0l-8.224,4.668a1.788,1.788,0,0,0-.667,2.445l.667.667,8,4.89a3.411,3.411,0,0,0,3.556,0l8.224-4.668a1.788,1.788,0,0,0,.667-2.445c.222-.222,0-.445-.445-.667Z" fill="#d4daed"/><path d="M174.7,344.515l-8.224-4.89a3.411,3.411,0,0,0-3.556,0l-8.224,4.668a1.788,1.788,0,0,0-.667,2.445l.667.667,8,4.89a3.411,3.411,0,0,0,3.556,0l8.446-4.668a1.788,1.788,0,0,0,.667-2.445l-.667-.667Z" fill="#d4daed"/><path d="M155.365,355.851l-8.224-4.89a3.411,3.411,0,0,0-3.556,0l-8.224,4.668a1.788,1.788,0,0,0-.667,2.445l.667.667,8,4.89a3.411,3.411,0,0,0,3.556,0l8.224-4.668a1.587,1.587,0,0,0,.667-2.223c.222-.445-.222-.667-.445-.889Z" fill="#d4daed"/><path d="M137.806,365.408l-8.224-4.89a3.411,3.411,0,0,0-3.556,0l-8.224,4.668a1.788,1.788,0,0,0-.667,2.445l.667.667,8,4.89a3.411,3.411,0,0,0,3.556,0l8.446-4.668a1.788,1.788,0,0,0,.667-2.445Q138.139,365.408,137.806,365.408Z" fill="#d4daed"/><path d="M337.4,271.389l-8.446-4.89a3.411,3.411,0,0,0-3.556,0l-8.224,4.668a1.788,1.788,0,0,0-.667,2.445l.667.667,8,4.89a3.411,3.411,0,0,0,3.556,0l8.446-4.89a1.788,1.788,0,0,0,.667-2.445l-.445-.445Z" fill="#d4daed"/><path d="M318.732,282.28l-8.224-4.89a3.411,3.411,0,0,0-3.556,0l-8.224,4.668a1.788,1.788,0,0,0-.667,2.445l.667.667,8,4.89a3.411,3.411,0,0,0,3.556,0l8.446-4.668a1.578,1.578,0,0,0,.445-2.445c0-.445-.222-.445-.445-.667Z" fill="#d4daed"/><path d="M300.728,292.282l-8.224-4.89a3.411,3.411,0,0,0-3.556,0l-8.224,4.668a1.788,1.788,0,0,0-.667,2.445l.667.667,8,4.89a3.411,3.411,0,0,0,3.556,0l8.446-4.668a1.788,1.788,0,0,0,.667-2.445q-.667-.333-.667-.667Z" fill="#d4daed"/><path d="M281.391,302.729l-8.224-4.89a3.411,3.411,0,0,0-3.556,0l-8.224,4.668a1.788,1.788,0,0,0-.667,2.445l.667.667,8,4.89a3.411,3.411,0,0,0,3.556,0l8.446-4.668a1.788,1.788,0,0,0,.667-2.445c-.222-.445-.222-.445-.667-.667Z" fill="#d4daed"/><path d="M264.5,312.731l-8.224-4.89a3.411,3.411,0,0,0-3.556,0l-8.224,4.668a1.788,1.788,0,0,0-.667,2.445l.667.667,8,4.89a3.411,3.411,0,0,0,3.556,0l8.224-4.668a1.788,1.788,0,0,0,.667-2.445C264.943,313.175,264.721,312.953,264.5,312.731Z" fill="#d4daed"/><path d="M247.162,323.4l-8.224-4.89a3.411,3.411,0,0,0-3.556,0l-8.224,4.89a1.788,1.788,0,0,0-.667,2.445l.667.667,8,4.89a3.411,3.411,0,0,0,3.556,0l8.446-4.89a1.788,1.788,0,0,0,.667-2.445q-.333-.667-.667-.667Z" fill="#d4daed"/><path d="M228.936,333.4l-8.224-4.89a3.411,3.411,0,0,0-3.556,0l-8.224,4.89a1.788,1.788,0,0,0-.667,2.445l.667.667,8,4.89a3.411,3.411,0,0,0,3.556,0l8.446-4.89a2.029,2.029,0,0,0,.445-2.445C229.158,333.846,229.158,333.624,228.936,333.4Z" fill="#d4daed"/><path d="M210.71,343.626l-8.224-4.89a3.411,3.411,0,0,0-3.556,0l-8.224,4.668a1.788,1.788,0,0,0-.667,2.445l.667.667,8,4.89a3.411,3.411,0,0,0,3.556,0l8.224-4.668a1.788,1.788,0,0,0,.667-2.445c0-.222,0-.445-.445-.667Z" fill="#d4daed"/><path d="M193.151,354.517l-8.224-4.89a3.411,3.411,0,0,0-3.556,0l-8.224,4.668a1.788,1.788,0,0,0-.667,2.445l.667.667,8.224,5.112a3.411,3.411,0,0,0,3.556,0l8.446-4.668a1.788,1.788,0,0,0,.667-2.445Z" fill="#d4daed"/><path d="M173.813,365.853l-8.224-4.89a3.411,3.411,0,0,0-3.556,0l-8.224,4.668a1.788,1.788,0,0,0-.667,2.445l.667.667,8,4.89a3.411,3.411,0,0,0,3.556,0l8.446-4.668a1.788,1.788,0,0,0,.667-2.445l-.667-.667Z" fill="#d4daed"/><path d="M156.476,375.41l-8.224-4.89a3.411,3.411,0,0,0-3.556,0l-8.224,4.668a1.788,1.788,0,0,0-.667,2.445l.667.667,8,4.89a3.411,3.411,0,0,0,3.556,0l8.446-4.668a1.788,1.788,0,0,0,.667-2.445c-.222-.445-.445-.445-.667-.667Z" fill="#d4daed"/><path d="M355.851,281.613l-8.224-4.89a3.411,3.411,0,0,0-3.556,0l-8.224,4.668a1.788,1.788,0,0,0-.667,2.445l.667.667,8,4.89a3.411,3.411,0,0,0,3.556,0l8.446-4.668a1.788,1.788,0,0,0,.667-2.445q-.333-.667-.667-.667Z" fill="#d4daed"/><path d="M337.18,292.282l-8.224-4.89a3.411,3.411,0,0,0-3.556,0l-8.224,4.668a1.788,1.788,0,0,0-.667,2.445l.667.667,8,4.89a3.411,3.411,0,0,0,3.556,0l8.446-4.668a1.788,1.788,0,0,0,.667-2.445q0-.333-.667-.667Z" fill="#d4daed"/><path d="M319.176,302.506l-8.224-4.89a3.411,3.411,0,0,0-3.556,0l-8.224,4.668a1.788,1.788,0,0,0-.667,2.445l.667.667,8,4.89a3.411,3.411,0,0,0,3.556,0l8.224-4.668a1.587,1.587,0,0,0,.667-2.223c.222-.445-.222-.667-.445-.889Z" fill="#d4daed"/><path d="M299.839,312.953l-8.224-4.89a3.411,3.411,0,0,0-3.556,0l-8.224,4.668a1.788,1.788,0,0,0-.667,2.445l.667.667,8,4.89a3.411,3.411,0,0,0,3.556,0l8.224-4.668a1.788,1.788,0,0,0,.667-2.445c0-.445-.222-.667-.445-.667Z" fill="#d4daed"/><path d="M281.391,324.066l-8.224-4.89a3.411,3.411,0,0,0-3.556,0L227.38,343.626a1.788,1.788,0,0,0-.667,2.445l.667.667,8,4.89a3.411,3.411,0,0,0,3.556,0l42.453-24.449a1.788,1.788,0,0,0,.667-2.445Q281.724,324.066,281.391,324.066Z" fill="#d4daed"/><path d="M229.38,353.85l-8.224-4.89a3.411,3.411,0,0,0-3.556,0l-8.224,4.668a1.788,1.788,0,0,0-.667,2.445l.667.667,8,4.89a3.411,3.411,0,0,0,3.556,0l8.446-4.89a1.578,1.578,0,0,0,.445-2.445c0-.222-.222-.222-.445-.445Z" fill="#d4daed"/><path d="M211.6,364.741l-8.224-4.89a3.411,3.411,0,0,0-3.556,0l-8.224,4.668a1.788,1.788,0,0,0-.667,2.445l.667.667,8,4.89a3.411,3.411,0,0,0,3.556,0l8.446-4.668c.889-.445.889-1.556.445-2.445,0-.445-.222-.667-.445-.667Z" fill="#d4daed"/><path d="M192.484,376.077l-8.224-4.89a3.411,3.411,0,0,0-3.556,0l-8.224,4.668a1.788,1.788,0,0,0-.667,2.445l.667.667,8,4.89a3.411,3.411,0,0,0,3.556,0l8.224-4.668a1.788,1.788,0,0,0,.667-2.445c0-.445-.222-.445-.445-.667Z" fill="#d4daed"/><path d="M174.925,385.412l-8.224-4.89a3.411,3.411,0,0,0-3.556,0l-8.224,4.668a1.788,1.788,0,0,0-.667,2.445l.667.667,8,4.89a3.411,3.411,0,0,0,3.556,0l8.446-4.668a1.788,1.788,0,0,0,.667-2.445q0-.333-.667-.667Z" fill="#d4daed"/><path d="M118.024,163.811,66.236,193.6v13.114l51.788-29.784Z" fill="#e3e7f3"/><path d="M163.145,160.033,66.236,216.266v8.446l96.909-56.234Z" fill="#e3e7f3"/><path d="M163.145,175.591,66.236,231.825v8.224l96.909-56.011Z" fill="#e3e7f3"/><path d="M260.5,172.924l-96.686,56.011v8.446L260.5,181.37Z" fill="#e3e7f3"/><path d="M260.5,156.921l-96.686,56.011v8.446L260.5,165.367Z" fill="#e3e7f3"/><path d="M260.5,188.261l-96.686,56.234v8.446L260.5,196.707Z" fill="#e3e7f3"/><g opacity="0.79"><path d="M399.637,435.2a2.312,2.312,0,0,0,1.334-2.889,2,2,0,0,0-1.334-1.334L360.3,408.306a8.481,8.481,0,0,0-7.335,0L313.62,431.2a2.312,2.312,0,0,0-1.334,2.889,2,2,0,0,0,1.334,1.334l39.341,22.671a8.481,8.481,0,0,0,7.335,0Z" fill="rgba(255,255,255,0)"/><path d="M399.415,435.2a2.038,2.038,0,0,0,1.111-2.889,2.679,2.679,0,0,0-1.111-1.111L360.3,408.75a8,8,0,0,0-7.113,0L314.064,431.2a2.038,2.038,0,0,0-1.111,2.889,2.679,2.679,0,0,0,1.111,1.111l39.119,22.449a8,8,0,0,0,7.113,0L399.415,435.2Z" fill="#f5f4f6" opacity="0.024"/><path d="M398.971,435.2a2.205,2.205,0,0,0,1.111-2.889,2.679,2.679,0,0,0-1.111-1.111L360.3,408.973a8,8,0,0,0-7.113,0L314.509,431.2a2.206,2.206,0,0,0-1.111,2.889,2.679,2.679,0,0,0,1.111,1.111l38.675,22.227a8,8,0,0,0,7.113,0Z" fill="#eeecef" opacity="0.049"/><path d="M398.526,435.2a2.206,2.206,0,0,0,1.111-2.889,2.679,2.679,0,0,0-1.111-1.111l-38.452-22.227a8,8,0,0,0-7.113,0L314.509,431.2a2.206,2.206,0,0,0-1.111,2.889,2.679,2.679,0,0,0,1.111,1.111l38.452,22.227a8,8,0,0,0,7.113,0Z" fill="#e7e6ea" opacity="0.073"/><path d="M398.3,435.2a2.205,2.205,0,0,0,1.111-2.889A2.679,2.679,0,0,0,398.3,431.2l-38.23-22a7.533,7.533,0,0,0-6.89,0l-38.008,22a2.205,2.205,0,0,0-1.111,2.889,2.679,2.679,0,0,0,1.111,1.111l38.23,22a7.533,7.533,0,0,0,6.89,0Z" fill="#e2dfe5" opacity="0.098"/><path d="M397.859,435.2a1.962,1.962,0,0,0,.889-2.889c-.222-.445-.667-.889-.889-.889l-37.786-21.782a7.537,7.537,0,0,0-6.89,0L315.4,431.422a1.962,1.962,0,0,0-.889,2.889c.222.445.667.889.889.889l38.008,21.782a7.537,7.537,0,0,0,6.89,0Z" fill="#dcd9e0" opacity="0.122"/><path d="M397.637,435.2a2.268,2.268,0,0,0,1.334-2.667,2,2,0,0,0-1.334-1.334l-37.563-21.56a7.537,7.537,0,0,0-6.89,0L315.842,431.2a2.268,2.268,0,0,0-1.334,2.667,2,2,0,0,0,1.334,1.334l37.341,21.56a7.537,7.537,0,0,0,6.89,0Z" fill="#d6d3db" opacity="0.146"/><path d="M397.192,435.2a2.268,2.268,0,0,0,1.334-2.667,2,2,0,0,0-1.334-1.334l-37.119-21.338a7.085,7.085,0,0,0-6.668,0L316.287,431.2a2.268,2.268,0,0,0-1.334,2.667,2,2,0,0,0,1.334,1.334l36.9,21.338a7.085,7.085,0,0,0,6.668,0L397.192,435.2Z" fill="#d1ced7" opacity="0.171"/><path d="M396.748,435.2a2.268,2.268,0,0,0,1.334-2.667,2,2,0,0,0-1.334-1.334l-36.9-21.115a7.085,7.085,0,0,0-6.668,0l-36.674,21.338a2.268,2.268,0,0,0-1.334,2.667,2,2,0,0,0,1.334,1.334l36.674,21.115a7.085,7.085,0,0,0,6.668,0Z" fill="#cbc8d2" opacity="0.195"/><path d="M396.526,435.2a2.122,2.122,0,0,0,1.334-2.445,2,2,0,0,0-1.334-1.334l-36.452-21.115a7.085,7.085,0,0,0-6.668,0l-36.452,21.115a2.122,2.122,0,0,0-1.334,2.445,2,2,0,0,0,1.334,1.334l36.452,21.115a7.085,7.085,0,0,0,6.668,0Z" fill="#c6c3ce" opacity="0.22"/><path d="M396.081,435.2a2.122,2.122,0,0,0,1.334-2.445,2,2,0,0,0-1.334-1.334l-36.23-20.893a7.085,7.085,0,0,0-6.668,0L317.176,431.2a2.122,2.122,0,0,0-1.334,2.445,2,2,0,0,0,1.334,1.334l36.007,20.893a7.085,7.085,0,0,0,6.668,0Z" fill="#c1beca" opacity="0.244"/><path d="M395.637,435.2a1.962,1.962,0,0,0,1.111-2.667,2.678,2.678,0,0,0-1.111-1.111l-35.785-20.671a6.648,6.648,0,0,0-6.446,0l-35.785,20.671a1.962,1.962,0,0,0-1.111,2.667,2.679,2.679,0,0,0,1.111,1.111l35.785,20.449a6.648,6.648,0,0,0,6.446,0Z" fill="#bcb9c6" opacity="0.268"/><path d="M395.414,434.978a1.8,1.8,0,0,0,1.111-2.445c-.222-.667-.667-1.111-1.111-1.111l-35.341-20.449a6.648,6.648,0,0,0-6.446,0l-35.341,20.449a1.8,1.8,0,0,0-1.111,2.445c.222.667.667,1.111,1.111,1.111l35.118,20.671a6.648,6.648,0,0,0,6.446,0Z" fill="#b8b4c2" opacity="0.293"/><path d="M394.97,434.978a1.8,1.8,0,0,0,1.111-2.445,1.826,1.826,0,0,0-1.111-1.111L359.851,411.2a6.648,6.648,0,0,0-6.446,0l-35.118,20.226a1.8,1.8,0,0,0-1.111,2.445,1.826,1.826,0,0,0,1.111,1.111L353.406,455.2a6.648,6.648,0,0,0,6.446,0Z" fill="#b3afbe" opacity="0.317"/><path d="M394.525,434.978a1.738,1.738,0,0,0,1.111-2.445c-.222-.667-.667-1.111-1.111-1.111l-34.674-20a6.648,6.648,0,0,0-6.446,0l-34.674,20a1.738,1.738,0,0,0-1.111,2.445c.222.667.667,1.111,1.111,1.111l34.674,20a6.648,6.648,0,0,0,6.446,0Z" fill="#aeaaba" opacity="0.342"/><path d="M394.3,434.978a1.738,1.738,0,0,0,1.111-2.445c-.222-.667-.667-1.111-1.111-1.111L359.851,411.64a7.594,7.594,0,0,0-6.223,0l-34.452,19.782a1.738,1.738,0,0,0-1.111,2.445c.222.667.667,1.111,1.111,1.111l34.452,19.782a7.594,7.594,0,0,0,6.223,0Z" fill="#aaa5b6" opacity="0.366"/><path d="M393.858,434.978a2.1,2.1,0,0,0,1.334-2.445,2,2,0,0,0-1.334-1.334l-34.007-19.782a7.594,7.594,0,0,0-6.223,0L319.621,431.2a2.1,2.1,0,0,0-1.334,2.445,2,2,0,0,0,1.334,1.334l34.007,19.782a7.594,7.594,0,0,0,6.223,0Z" fill="#a5a0b2" opacity="0.39"/><path d="M393.414,434.978a1.893,1.893,0,0,0,1.111-2.445,2.679,2.679,0,0,0-1.111-1.111l-33.785-19.56a7.594,7.594,0,0,0-6.224,0l-33.785,19.56a1.893,1.893,0,0,0-1.111,2.445,2.679,2.679,0,0,0,1.111,1.111l33.785,19.56a7.594,7.594,0,0,0,6.224,0Z" fill="#a19caf" opacity="0.415"/><path d="M393.192,434.978a1.893,1.893,0,0,0,1.111-2.445,2.679,2.679,0,0,0-1.111-1.111l-33.34-19.337a7.08,7.08,0,0,0-6,0l-33.34,19.337a1.893,1.893,0,0,0-1.111,2.445,2.679,2.679,0,0,0,1.111,1.111l33.34,19.337a7.08,7.08,0,0,0,6,0Z" fill="#9d97ab" opacity="0.439"/><path d="M392.747,434.978a1.811,1.811,0,0,0,1.111-2.445,2.679,2.679,0,0,0-1.111-1.111l-33.118-19.115a7.08,7.08,0,0,0-6,0L320.51,431.422a1.811,1.811,0,0,0-1.111,2.445,2.679,2.679,0,0,0,1.111,1.111l33.118,19.115a7.08,7.08,0,0,0,6,0Z" fill="#9893a8" opacity="0.463"/><path d="M392.525,434.978a1.66,1.66,0,0,0,1.111-2.223,2.679,2.679,0,0,0-1.111-1.111l-32.673-18.893a7.08,7.08,0,0,0-6,0l-32.673,18.893a1.66,1.66,0,0,0-1.111,2.223,2.679,2.679,0,0,0,1.111,1.111l32.673,18.893a7.08,7.08,0,0,0,6,0Z" fill="#948fa4" opacity="0.488"/><path d="M392.08,434.978a1.66,1.66,0,0,0,1.111-2.223,2.679,2.679,0,0,0-1.111-1.111l-32.451-18.67a7.08,7.08,0,0,0-6,0l-32.451,18.67a1.66,1.66,0,0,0-1.111,2.223,2.679,2.679,0,0,0,1.111,1.111l32.451,18.67a7.08,7.08,0,0,0,6,0Z" fill="#908aa1" opacity="0.512"/><path d="M391.636,434.978a1.834,1.834,0,0,0,1.111-2.223,2.679,2.679,0,0,0-1.111-1.111L359.629,413.2a6.594,6.594,0,0,0-5.779,0l-32.007,18.448a1.834,1.834,0,0,0-1.111,2.223,2.679,2.679,0,0,0,1.111,1.111l32.007,18.448a6.594,6.594,0,0,0,5.779,0Z" fill="#8c869d" opacity="0.537"/><path d="M391.413,434.978a1.834,1.834,0,0,0,1.111-2.223,2.679,2.679,0,0,0-1.111-1.111L359.629,413.2a6.594,6.594,0,0,0-5.779,0l-31.784,18.448a1.834,1.834,0,0,0-1.111,2.223,2.679,2.679,0,0,0,1.111,1.111l31.784,18.448a6.594,6.594,0,0,0,5.779,0Z" fill="#88829a" opacity="0.561"/><path d="M390.969,434.756a1.834,1.834,0,0,0,1.111-2.223,2.678,2.678,0,0,0-1.111-1.111L359.407,413.2a6.594,6.594,0,0,0-5.779,0l-31.562,18.226a1.834,1.834,0,0,0-1.111,2.223,2.679,2.679,0,0,0,1.111,1.111l31.34,18.226a6.594,6.594,0,0,0,5.779,0l31.784-18.226Z" fill="#847f97" opacity="0.585"/><path d="M390.747,434.756a1.834,1.834,0,0,0,1.111-2.223,2.679,2.679,0,0,0-1.111-1.111l-31.117-18a6.59,6.59,0,0,0-5.779,0l-31.117,18a1.834,1.834,0,0,0-1.111,2.223,2.679,2.679,0,0,0,1.111,1.111l31.117,18a6.59,6.59,0,0,0,5.779,0Z" fill="#817b94" opacity="0.61"/><path d="M390.3,434.756a1.834,1.834,0,0,0,1.111-2.223,2.678,2.678,0,0,0-1.111-1.111L359.629,413.64a6.122,6.122,0,0,0-5.557,0L323.4,431.422a1.834,1.834,0,0,0-1.111,2.223,2.679,2.679,0,0,0,1.111,1.111l30.673,17.781a6.122,6.122,0,0,0,5.557,0Z" fill="#7d7791" opacity="0.634"/><path d="M389.858,434.756a1.834,1.834,0,0,0,1.111-2.223,2.679,2.679,0,0,0-1.111-1.111l-30.451-17.559a6.122,6.122,0,0,0-5.557,0L323.4,431.422a1.834,1.834,0,0,0-1.111,2.223,2.679,2.679,0,0,0,1.111,1.111l30.451,17.559a6.122,6.122,0,0,0,5.557,0Z" fill="#79748e" opacity="0.659"/><path d="M389.635,434.756a1.59,1.59,0,0,0,1.111-2,2.679,2.679,0,0,0-1.111-1.111l-30.006-17.337a6.122,6.122,0,0,0-5.557,0l-30.006,17.337a1.59,1.59,0,0,0-1.111,2,2.679,2.679,0,0,0,1.111,1.111l30.006,17.337a6.122,6.122,0,0,0,5.557,0Z" fill="#76708b" opacity="0.683"/><path d="M389.191,434.756a1.563,1.563,0,0,0,.889-2.223c-.222-.445-.445-.889-.889-.889l-29.784-17.115a5.663,5.663,0,0,0-5.334,0l-29.784,17.115a1.563,1.563,0,0,0-.889,2.223c.222.445.445.889.889.889l29.784,17.115a5.663,5.663,0,0,0,5.334,0Z" fill="#726d88" opacity="0.707"/><path d="M388.968,434.756a1.4,1.4,0,0,0,.889-2c-.222-.445-.445-.889-.889-.889l-29.562-17.115a5.663,5.663,0,0,0-5.334,0l-29.562,16.892a1.4,1.4,0,0,0-.889,2c.222.445.445.889.889.889l29.339,16.892a5.663,5.663,0,0,0,5.334,0l29.784-16.67Z" fill="#6f6986" opacity="0.732"/><path d="M388.524,434.756a1.59,1.59,0,0,0,1.111-2,1.826,1.826,0,0,0-1.111-1.111l-29.117-16.892a5.668,5.668,0,0,0-5.334,0l-29.117,16.892a1.59,1.59,0,0,0-1.111,2,1.826,1.826,0,0,0,1.111,1.111l29.117,16.892a5.668,5.668,0,0,0,5.334,0Z" fill="#6b6683" opacity="0.756"/><path d="M388.079,434.756a1.351,1.351,0,0,0,.889-2c-.222-.445-.445-.889-.889-.889L359.407,415.2a5.663,5.663,0,0,0-5.334,0L325.4,431.866a1.351,1.351,0,0,0-.889,2c.222.445.445.889.889.889L354.072,451.2a5.663,5.663,0,0,0,5.334,0Z" fill="#686380" opacity="0.78"/><path d="M387.635,434.756a1.59,1.59,0,0,0,1.111-2,1.826,1.826,0,0,0-1.111-1.111L359.185,415.2a5.233,5.233,0,0,0-5.112,0l-28.45,16.448a1.59,1.59,0,0,0-1.111,2,1.826,1.826,0,0,0,1.111,1.111l28.45,16.448a5.233,5.233,0,0,0,5.112,0Z" fill="#64607e" opacity="0.805"/><path d="M387.413,434.756a1.351,1.351,0,0,0,.889-2c-.222-.445-.445-.889-.889-.889l-28.006-16.226a5.233,5.233,0,0,0-5.112,0l-28.006,16.226a1.351,1.351,0,0,0-.889,2c.222.445.445.889.889.889l28.006,16.226a5.233,5.233,0,0,0,5.112,0Z" fill="#615d7b" opacity="0.829"/><path d="M386.968,434.756a1.351,1.351,0,0,0,.889-2c-.222-.445-.445-.889-.889-.889l-27.783-16a5.233,5.233,0,0,0-5.112,0l-27.783,16a1.351,1.351,0,0,0-.889,2c.222.445.445.889.889.889l27.783,16a5.233,5.233,0,0,0,5.112,0Z" fill="#5d5a79" opacity="0.854"/><path d="M386.746,434.756c.889-.222,1.111-1.111.889-2a1.735,1.735,0,0,0-.889-.889l-27.339-15.781a5.228,5.228,0,0,0-5.112,0l-27.561,15.781c-.889.222-1.111,1.111-.889,2a1.736,1.736,0,0,0,.889.889l27.339,15.781a5.228,5.228,0,0,0,5.112,0Z" fill="#5a5776" opacity="0.878"/><path d="M386.3,434.756c.889-.222,1.111-1.111.889-2a1.735,1.735,0,0,0-.889-.889l-27.117-15.559a4.816,4.816,0,0,0-4.89,0l-27.117,15.559c-.889.222-1.111,1.111-.889,2a1.735,1.735,0,0,0,.889.889l27.117,15.559a4.816,4.816,0,0,0,4.89,0Z" fill="#565474" opacity="0.902"/><path d="M385.857,434.756a1.327,1.327,0,0,0,.889-1.778c-.222-.445-.445-.889-.889-.889L359.185,416.53a6.226,6.226,0,0,0-4.89,0l-26.672,15.559a1.327,1.327,0,0,0-.889,1.778c.222.445.445.889.889.889l26.672,15.559a6.226,6.226,0,0,0,4.89,0Z" fill="#535172" opacity="0.927"/><path d="M385.634,434.756a1.512,1.512,0,0,0,.889-1.778,1.735,1.735,0,0,0-.889-.889l-26.45-15.336a6.226,6.226,0,0,0-4.89,0l-26.45,15.336a1.512,1.512,0,0,0-.889,1.778,1.735,1.735,0,0,0,.889.889l26.45,15.336a6.226,6.226,0,0,0,4.89,0Z" fill="#4f4e6f" opacity="0.951"/><path d="M385.19,434.756a1.512,1.512,0,0,0,.889-1.778c-.222-.445-.445-.889-.889-.889l-26.005-15.114a5.689,5.689,0,0,0-4.668,0l-26.228,15.114a1.512,1.512,0,0,0-.889,1.778c.222.445.445.889.889.889l26.228,15.114a5.689,5.689,0,0,0,4.668,0Z" fill="#4c4b6d" opacity="0.976"/><path d="M384.745,434.756a1.512,1.512,0,0,0,.889-1.778,1.735,1.735,0,0,0-.889-.889L358.962,417.2a5.689,5.689,0,0,0-4.668,0l-25.783,14.892a1.512,1.512,0,0,0-.889,1.778,1.735,1.735,0,0,0,.889.889l25.783,14.892a5.689,5.689,0,0,0,4.668,0Z" fill="#49486b"/></g><path d="M395.637,414.752l-38.675-22.227L318.51,414.752l38.452,22.227Z" fill="#ebeef6"/><path d="M395.637,414.752v16.67l-38.675,22.227v-16.67Z" fill="#e3e7f3"/><path d="M393.858,418.752v4.223l-9.78,5.557v-4.223Z" fill="#fff"/><path d="M356.962,453.648,318.51,431.422v-16.67l38.452,22.227Z" fill="#dbe0f0"/><path d="M380.3,440.312v-16.67l-7.779,4.445v16.67Z" fill="#0073ec"/><path d="M380.3,423.642l-38.675-22.227-8,4.445,38.9,22.227Z" fill="#0073ec"/><g opacity="0.79"><path d="M334.513,484.988a2.312,2.312,0,0,0,1.334-2.889,2,2,0,0,0-1.334-1.334l-39.341-22.671a8.481,8.481,0,0,0-7.335,0L248.5,480.987a2.312,2.312,0,0,0-1.334,2.889,2,2,0,0,0,1.334,1.334l39.341,22.671a8.481,8.481,0,0,0,7.335,0Z" fill="rgba(255,255,255,0)"/><path d="M334.291,484.988A2.038,2.038,0,0,0,335.4,482.1a2.679,2.679,0,0,0-1.111-1.111l-39.119-22.449a8,8,0,0,0-7.113,0L248.94,480.987a2.038,2.038,0,0,0-1.111,2.889,2.678,2.678,0,0,0,1.111,1.111l39.119,22.449a8,8,0,0,0,7.113,0l39.119-22.449Z" fill="#f5f4f6" opacity="0.024"/><path d="M333.846,484.988a2.205,2.205,0,0,0,1.111-2.889,2.679,2.679,0,0,0-1.111-1.111l-38.675-22.227a8,8,0,0,0-7.113,0l-38.675,22.227a2.206,2.206,0,0,0-1.111,2.889,2.678,2.678,0,0,0,1.111,1.111l38.675,22.227a8,8,0,0,0,7.113,0Z" fill="#eeecef" opacity="0.049"/><path d="M333.4,484.988a2.205,2.205,0,0,0,1.111-2.889,2.679,2.679,0,0,0-1.111-1.111l-38.452-22.227a8,8,0,0,0-7.113,0l-38.452,22.227a2.206,2.206,0,0,0-1.111,2.889,2.678,2.678,0,0,0,1.111,1.111l38.452,22.227a8,8,0,0,0,7.113,0Z" fill="#e7e6ea" opacity="0.073"/><path d="M333.179,484.988a2.205,2.205,0,0,0,1.111-2.889,2.679,2.679,0,0,0-1.111-1.111l-38.008-22a7.533,7.533,0,0,0-6.89,0l-38.008,22a2.206,2.206,0,0,0-1.111,2.889,2.678,2.678,0,0,0,1.111,1.111l38.008,22a7.533,7.533,0,0,0,6.89,0Z" fill="#e2dfe5" opacity="0.098"/><path d="M332.735,484.988a1.962,1.962,0,0,0,.889-2.889c-.222-.445-.667-.889-.889-.889l-37.786-21.782a7.537,7.537,0,0,0-6.89,0L250.273,481.21a1.962,1.962,0,0,0-.889,2.889c.222.445.667.889.889.889l37.786,21.782a7.537,7.537,0,0,0,6.89,0Z" fill="#dcd9e0" opacity="0.122"/><path d="M332.29,484.988a2.268,2.268,0,0,0,1.334-2.667,2,2,0,0,0-1.334-1.334l-37.341-21.56a7.537,7.537,0,0,0-6.89,0l-37.341,21.56a2.268,2.268,0,0,0-1.334,2.667,2,2,0,0,0,1.334,1.334l37.341,21.56a7.537,7.537,0,0,0,6.89,0Z" fill="#d6d3db" opacity="0.146"/><path d="M332.068,484.988a2.268,2.268,0,0,0,1.334-2.667,2,2,0,0,0-1.334-1.334L294.949,459.65a7.085,7.085,0,0,0-6.668,0l-37.119,21.338a2.268,2.268,0,0,0-1.334,2.667,2,2,0,0,0,1.334,1.334l37.119,21.338a7.085,7.085,0,0,0,6.668,0Z" fill="#d1ced7" opacity="0.171"/><path d="M331.623,484.766a2.268,2.268,0,0,0,1.334-2.667,2,2,0,0,0-1.334-1.334l-36.674-21.338a7.085,7.085,0,0,0-6.668,0l-36.674,21.338a2.268,2.268,0,0,0-1.334,2.667,2,2,0,0,0,1.334,1.334L288.281,506.1a7.085,7.085,0,0,0,6.668,0Z" fill="#cbc8d2" opacity="0.195"/><path d="M331.4,484.766a2.122,2.122,0,0,0,1.334-2.445,2,2,0,0,0-1.334-1.334l-36.452-21.115a7.085,7.085,0,0,0-6.668,0l-36.452,21.115a2.122,2.122,0,0,0-1.334,2.445,2,2,0,0,0,1.334,1.334l36.452,21.115a7.085,7.085,0,0,0,6.668,0Z" fill="#c6c3ce" opacity="0.22"/><path d="M330.957,484.766a2.122,2.122,0,0,0,1.334-2.445,2,2,0,0,0-1.334-1.334l-36.007-20.893a7.085,7.085,0,0,0-6.668,0l-36.007,20.893a2.122,2.122,0,0,0-1.334,2.445,2,2,0,0,0,1.334,1.334l36.007,20.893a7.085,7.085,0,0,0,6.668,0Z" fill="#c1beca" opacity="0.244"/><path d="M330.512,484.766a1.962,1.962,0,0,0,1.111-2.667,2.679,2.679,0,0,0-1.111-1.111l-35.785-20.671a6.648,6.648,0,0,0-6.446,0L252.5,480.987a1.962,1.962,0,0,0-1.111,2.667,2.679,2.679,0,0,0,1.111,1.111l35.785,20.671a6.648,6.648,0,0,0,6.446,0Z" fill="#bcb9c6" opacity="0.268"/><path d="M330.29,484.766a1.8,1.8,0,0,0,1.111-2.445c-.222-.667-.667-1.111-1.111-1.111l-35.341-20.449a6.648,6.648,0,0,0-6.446,0L253.163,481.21a1.8,1.8,0,0,0-1.111,2.445c.222.667.667,1.111,1.111,1.111L288.5,505.214a6.648,6.648,0,0,0,6.446,0Z" fill="#b8b4c2" opacity="0.293"/><path d="M329.845,484.766a1.8,1.8,0,0,0,1.111-2.445,1.826,1.826,0,0,0-1.111-1.111l-35.118-20.226a6.648,6.648,0,0,0-6.446,0L253.163,481.21a1.8,1.8,0,0,0-1.111,2.445,1.826,1.826,0,0,0,1.111,1.111l35.118,20.226a6.648,6.648,0,0,0,6.446,0Z" fill="#b3afbe" opacity="0.317"/><path d="M329.4,484.766a1.738,1.738,0,0,0,1.111-2.445c-.222-.667-.667-1.111-1.111-1.111l-34.674-20a6.648,6.648,0,0,0-6.446,0l-34.674,20a1.738,1.738,0,0,0-1.111,2.445c.222.667.667,1.111,1.111,1.111l34.674,20a6.648,6.648,0,0,0,6.446,0Z" fill="#aeaaba" opacity="0.342"/><path d="M329.178,484.766a1.738,1.738,0,0,0,1.111-2.445c-.222-.667-.667-1.111-1.111-1.111l-34.451-19.782a7.594,7.594,0,0,0-6.224,0L254.052,481.21a1.738,1.738,0,0,0-1.111,2.445c.222.667.667,1.111,1.111,1.111L288.5,504.548a7.594,7.594,0,0,0,6.224,0Z" fill="#aaa5b6" opacity="0.366"/><path d="M328.734,484.766a2.1,2.1,0,0,0,1.334-2.445,2,2,0,0,0-1.334-1.334L294.5,461.205a7.594,7.594,0,0,0-6.224,0l-34.007,19.782a2.1,2.1,0,0,0-1.334,2.445,2,2,0,0,0,1.334,1.334l34.007,19.782a7.594,7.594,0,0,0,6.224,0Z" fill="#a5a0b2" opacity="0.39"/><path d="M328.289,484.766a1.893,1.893,0,0,0,1.111-2.445,2.679,2.679,0,0,0-1.111-1.111L294.5,461.65a7.594,7.594,0,0,0-6.224,0L254.5,481.21a1.893,1.893,0,0,0-1.111,2.445,2.679,2.679,0,0,0,1.111,1.111l33.785,19.56a7.594,7.594,0,0,0,6.224,0Z" fill="#a19caf" opacity="0.415"/><path d="M328.067,484.766a1.893,1.893,0,0,0,1.111-2.445,2.679,2.679,0,0,0-1.111-1.111l-33.34-19.337a7.08,7.08,0,0,0-6,0l-33.34,19.337a1.893,1.893,0,0,0-1.111,2.445,2.679,2.679,0,0,0,1.111,1.111l33.34,19.337a7.08,7.08,0,0,0,6,0Z" fill="#9d97ab" opacity="0.439"/><path d="M327.623,484.766a1.811,1.811,0,0,0,1.111-2.445,2.679,2.679,0,0,0-1.111-1.111L294.5,462.095a7.08,7.08,0,0,0-6,0L255.386,481.21a1.811,1.811,0,0,0-1.111,2.445,2.679,2.679,0,0,0,1.111,1.111L288.5,503.881a7.08,7.08,0,0,0,6,0Z" fill="#9893a8" opacity="0.463"/><path d="M327.4,484.766a1.66,1.66,0,0,0,1.111-2.223,2.679,2.679,0,0,0-1.111-1.111l-32.673-18.893a7.08,7.08,0,0,0-6,0l-32.673,18.893a1.66,1.66,0,0,0-1.111,2.223,2.679,2.679,0,0,0,1.111,1.111l32.673,18.893a7.08,7.08,0,0,0,6,0Z" fill="#948fa4" opacity="0.488"/><path d="M326.956,484.544a1.66,1.66,0,0,0,1.111-2.223,2.679,2.679,0,0,0-1.111-1.111L294.5,462.539a7.08,7.08,0,0,0-6,0l-32.451,18.67a1.66,1.66,0,0,0-1.111,2.223,2.679,2.679,0,0,0,1.111,1.111l32.451,18.67a7.08,7.08,0,0,0,6,0Z" fill="#908aa1" opacity="0.512"/><path d="M326.511,484.544a1.834,1.834,0,0,0,1.111-2.223,2.679,2.679,0,0,0-1.111-1.111L294.5,462.761a6.594,6.594,0,0,0-5.779,0L256.719,481.21a1.834,1.834,0,0,0-1.111,2.223,2.679,2.679,0,0,0,1.111,1.111l32.229,18.448a6.594,6.594,0,0,0,5.779,0l31.784-18.448Z" fill="#8c869d" opacity="0.537"/><path d="M326.289,484.544a1.834,1.834,0,0,0,1.111-2.223,2.679,2.679,0,0,0-1.111-1.111L294.5,462.761a6.594,6.594,0,0,0-5.779,0L256.941,481.21a1.834,1.834,0,0,0-1.111,2.223,2.679,2.679,0,0,0,1.111,1.111l31.784,18.448a6.594,6.594,0,0,0,5.779,0Z" fill="#88829a" opacity="0.561"/><path d="M325.844,484.544a1.834,1.834,0,0,0,1.111-2.223,2.679,2.679,0,0,0-1.111-1.111L294.5,462.984a6.594,6.594,0,0,0-5.779,0l-31.34,18.226a1.834,1.834,0,0,0-1.111,2.223,2.679,2.679,0,0,0,1.111,1.111l31.562,18.226a6.594,6.594,0,0,0,5.779,0Z" fill="#847f97" opacity="0.585"/><path d="M325.4,484.544a1.834,1.834,0,0,0,1.111-2.223,2.679,2.679,0,0,0-1.111-1.111l-31.117-18a6.589,6.589,0,0,0-5.779,0l-31.117,18a1.834,1.834,0,0,0-1.111,2.223,2.679,2.679,0,0,0,1.111,1.111l31.117,18a6.589,6.589,0,0,0,5.779,0Z" fill="#817b94" opacity="0.61"/><path d="M325.178,484.544a1.834,1.834,0,0,0,1.111-2.223,2.679,2.679,0,0,0-1.111-1.111L294.5,463.428a6.122,6.122,0,0,0-5.557,0L258.275,481.21a1.834,1.834,0,0,0-1.111,2.223,2.679,2.679,0,0,0,1.111,1.111l30.673,17.781a6.122,6.122,0,0,0,5.557,0Z" fill="#7d7791" opacity="0.634"/><path d="M324.733,484.544a1.834,1.834,0,0,0,1.111-2.223,2.679,2.679,0,0,0-1.111-1.111L294.282,463.65a6.122,6.122,0,0,0-5.557,0L258.275,481.21a1.834,1.834,0,0,0-1.111,2.223,2.679,2.679,0,0,0,1.111,1.111L288.726,502.1a6.122,6.122,0,0,0,5.557,0Z" fill="#79748e" opacity="0.659"/><path d="M324.289,484.544a1.563,1.563,0,0,0,.889-2.223c-.222-.445-.445-.889-.889-.889l-30.006-17.337a6.122,6.122,0,0,0-5.557,0L258.72,481.432a1.59,1.59,0,0,0-1.111,2,2.679,2.679,0,0,0,1.111,1.111l30.006,17.337a6.122,6.122,0,0,0,5.557,0Z" fill="#76708b" opacity="0.683"/><path d="M324.066,484.544a1.563,1.563,0,0,0,.889-2.223c-.222-.445-.445-.889-.889-.889l-29.784-17.115a5.663,5.663,0,0,0-5.334,0l-29.784,17.115a1.563,1.563,0,0,0-.889,2.223c.222.445.445.889.889.889l29.784,17.115a5.663,5.663,0,0,0,5.334,0Z" fill="#726d88" opacity="0.707"/><path d="M323.622,484.544a1.69,1.69,0,0,0,1.111-2,1.826,1.826,0,0,0-1.111-1.111l-29.339-16.892a5.663,5.663,0,0,0-5.334,0l-29.339,16.892a1.69,1.69,0,0,0-1.111,2,1.826,1.826,0,0,0,1.111,1.111l29.562,16.892a5.663,5.663,0,0,0,5.334,0l29.117-16.892Z" fill="#6f6986" opacity="0.732"/><path d="M323.4,484.544a1.59,1.59,0,0,0,1.111-2,1.826,1.826,0,0,0-1.111-1.111l-29.117-16.892a5.668,5.668,0,0,0-5.334,0l-29.117,16.892a1.59,1.59,0,0,0-1.111,2,1.826,1.826,0,0,0,1.111,1.111l29.117,16.892a5.668,5.668,0,0,0,5.334,0Z" fill="#6b6683" opacity="0.756"/><path d="M322.955,484.544a1.351,1.351,0,0,0,.889-2c-.222-.445-.445-.889-.889-.889l-28.673-16.67a5.663,5.663,0,0,0-5.334,0l-28.895,16.67a1.351,1.351,0,0,0-.889,2c.222.445.445.889.889.889l28.895,16.448a5.663,5.663,0,0,0,5.334,0Z" fill="#686380" opacity="0.78"/><path d="M322.51,484.321a1.59,1.59,0,0,0,1.111-2,1.826,1.826,0,0,0-1.111-1.111l-28.45-16.448a5.233,5.233,0,0,0-5.112,0L260.5,481.21a1.59,1.59,0,0,0-1.111,2,1.826,1.826,0,0,0,1.111,1.111l28.45,16.448a5.233,5.233,0,0,0,5.112,0Z" fill="#64607e" opacity="0.805"/><path d="M322.288,484.321a1.351,1.351,0,0,0,.889-2c-.222-.445-.445-.889-.889-.889l-28.006-16.226a5.233,5.233,0,0,0-5.112,0l-28.006,16.226a1.351,1.351,0,0,0-.889,2c.222.445.445.889.889.889l28.006,16.226a5.233,5.233,0,0,0,5.112,0Z" fill="#615d7b" opacity="0.829"/><path d="M321.844,484.321a1.351,1.351,0,0,0,.889-2c-.222-.445-.445-.889-.889-.889l-27.783-16a5.233,5.233,0,0,0-5.112,0l-27.783,16a1.351,1.351,0,0,0-.889,2c.222.445.445.889.889.889l27.783,16a5.233,5.233,0,0,0,5.112,0Z" fill="#5d5a79" opacity="0.854"/><path d="M321.4,484.321c.889-.222,1.111-1.111.889-2a1.735,1.735,0,0,0-.889-.889L294.06,465.651a5.228,5.228,0,0,0-5.112,0l-27.339,15.781c-.889.222-1.111,1.111-.889,2a1.735,1.735,0,0,0,.889.889L288.948,500.1a5.228,5.228,0,0,0,5.112,0Z" fill="#5a5776" opacity="0.878"/><path d="M321.177,484.321c.889-.222,1.111-1.111.889-2a1.735,1.735,0,0,0-.889-.889L294.06,465.873a4.816,4.816,0,0,0-4.89,0l-27.117,15.559c-.889.222-1.111,1.111-.889,2a1.735,1.735,0,0,0,.889.889L289.17,499.88a4.816,4.816,0,0,0,4.89,0Z" fill="#565474" opacity="0.902"/><path d="M320.732,484.321a1.327,1.327,0,0,0,.889-1.778c-.222-.445-.445-.889-.889-.889L294.06,466.1a6.227,6.227,0,0,0-4.89,0L262.5,481.654a1.327,1.327,0,0,0-.889,1.778c.222.445.445.889.889.889L289.17,499.88a6.227,6.227,0,0,0,4.89,0Z" fill="#535172" opacity="0.927"/><path d="M320.51,484.321a1.512,1.512,0,0,0,.889-1.778,1.735,1.735,0,0,0-.889-.889l-26.45-15.336a6.227,6.227,0,0,0-4.89,0l-26.45,15.336a1.512,1.512,0,0,0-.889,1.778,1.735,1.735,0,0,0,.889.889l26.45,15.336a6.227,6.227,0,0,0,4.89,0Z" fill="#4f4e6f" opacity="0.951"/><path d="M320.065,484.321a1.512,1.512,0,0,0,.889-1.778c-.222-.445-.445-.889-.889-.889L293.838,466.54a5.689,5.689,0,0,0-4.668,0l-26.228,15.114a1.512,1.512,0,0,0-.889,1.778c.222.445.445.889.889.889l26.228,15.114a5.689,5.689,0,0,0,4.668,0Z" fill="#4c4b6d" opacity="0.976"/><path d="M319.621,484.321a1.512,1.512,0,0,0,.889-1.778,1.735,1.735,0,0,0-.889-.889l-25.783-14.892a5.689,5.689,0,0,0-4.668,0l-25.783,14.892a1.512,1.512,0,0,0-.889,1.778,1.735,1.735,0,0,0,.889.889l25.783,14.892a5.689,5.689,0,0,0,4.668,0Z" fill="#49486b"/></g><path d="M327.845,441.2,292.06,420.753,256.275,441.2l35.785,20.671Z" fill="#ebeef6"/><path d="M327.845,441.2v41.342L292.06,503.214V461.872Z" fill="#e3e7f3"/><path d="M292.06,503.214l-35.785-20.671V441.2l35.785,20.671Z" fill="#dbe0f0"/><path d="M313.4,490.767V449.425l-7.113,4.223v41.12Z" fill="#555373"/><path d="M313.4,449.425l-35.563-20.449-7.335,4,35.785,20.671Z" fill="#65617e"/><path d="M313.175,432.755l-35.341,20.893-7.113-4.223,35.118-20.893Z" fill="#65617e"/><path d="M277.835,453.648v41.12l-7.113-4V449.425Z" fill="#49486b"/><path d="M273.167,440.535a14.448,14.448,0,0,1,9.558-2l6.446.667,5.334,2.667-14.67,8-6.668-3.112a3.576,3.576,0,0,1-1.334-4.89l1.334-1.334Z" fill="#49486b"/><path d="M291.837,433.2a15.9,15.9,0,0,1,6.446-7.335,3.134,3.134,0,0,1,3.112-.222h.222l.222.222,5.557,2.889L294.727,442.09l-5.334-2.667,2.445-6.224Z" fill="#49486b"/><path d="M294.727,442.09l12.447-7.335a3.547,3.547,0,0,0,1.778-3.112,3.511,3.511,0,0,0-3.556-3.556,4.188,4.188,0,0,0-1.778.445,15.9,15.9,0,0,0-6.446,7.335Z" fill="#feea74"/><path d="M294.727,442.09l12.447-7.335a3.547,3.547,0,0,0,1.778-3.112,3.511,3.511,0,0,0-3.556-3.556,4.188,4.188,0,0,0-1.778.445,15.9,15.9,0,0,0-6.446,7.335Z" fill="#65617e"/><path d="M306.952,434.311a2.983,2.983,0,0,0,1.111-4.223,3.084,3.084,0,0,0-2.667-1.556,4.122,4.122,0,0,0-1.556.445,16.173,16.173,0,0,0-6.224,7.113l-2,4.668,11.336-6.446Z" fill="#373750"/><path d="M294.727,442.09l-12.447,7.557a3.584,3.584,0,0,1-4.89-4.89,2,2,0,0,1,1.334-1.334,14.448,14.448,0,0,1,9.557-2Z" fill="#65617e"/><path d="M280.5,449.425a3.213,3.213,0,0,0,1.556-.445l11.113-6.668-5.112-.667a14.544,14.544,0,0,0-9.113,2,2.8,2.8,0,0,0-.889,4.223,2.047,2.047,0,0,0,2.445,1.556Z" fill="#373750"/><path d="M176.481,130.249a9.39,9.39,0,0,0-4.445,7.557V179.37c0,2.667,2,4,4.445,2.445l80.683-46.676a8.944,8.944,0,0,0,4.223-7.557l-.445-41.12c0-2.667-2-4-4.445-2.445l-80.016,46.232Z" fill="#f7f8fc"/><path d="M176.481,130.249l80.239-46.232c1.556-.889,3.112-.667,3.779.445a3.4,3.4,0,0,0-2.889.445l-80.016,46.232a9.39,9.39,0,0,0-4.445,7.557v41.564a3.1,3.1,0,0,0,.667,2,2.688,2.688,0,0,1-1.556-2.889V137.806a9.493,9.493,0,0,1,4.223-7.557Z" fill="url(#d)"/><path d="M190.261,132.694a31.319,31.319,0,0,0-14.225,24.894c0,9.113,6.446,12.892,14.225,8.668s14.225-15.559,14.225-24.894S198.041,128.026,190.261,132.694Z" fill="#0073ec"/><path d="M186.927,156.476a3.459,3.459,0,0,0,2.445,3.779,2.921,2.921,0,0,0,2.667-.667,11.073,11.073,0,0,0,4.89-8.891l-10,5.779Z" fill="#fff"/><path d="M196.707,140.7a3.389,3.389,0,0,0-1.556,2.667c0,.889.667,1.334,1.556.889a3.389,3.389,0,0,0,1.556-2.667C198.263,140.473,197.6,140.029,196.707,140.7Z" fill="#49486b"/><path d="M186.483,146.7a3.389,3.389,0,0,0-1.556,2.667c0,.889.667,1.334,1.556.889a3.389,3.389,0,0,0,1.556-2.667C188.038,146.7,187.372,146.252,186.483,146.7Z" fill="#49486b"/><path d="M209.154,123.8l.222,3.779,46.9-27.339V96.464Z" fill="#e3e7f3"/><path d="M209.154,133.138l.222,3.779,46.9-27.339v-4Z" fill="#e3e7f3"/><path d="M209.154,142.251l.222,4,46.9-27.339v-4Z" fill="#e3e7f3"/><path d="M231.158,138.917v4l25.116-14.447v-4Z" fill="#e3e7f3"/><path d="M156.032,213.6v40.453a7.366,7.366,0,0,1-3.556,6.223l-79.35,46.454a3.955,3.955,0,0,1-5.334-1.334,3.585,3.585,0,0,1-.667-2v-41.12a7,7,0,0,1,3.334-6l79.35-45.787a4.061,4.061,0,0,1,5.557,1.334c.445.222.667.889.667,1.778Z" fill="#49486b"/><path d="M70.459,256.052l79.35-45.787a4.019,4.019,0,0,1,4.668.445,4.023,4.023,0,0,0-3.556.222L71.57,256.719a7.007,7.007,0,0,0-3.556,6v40.9a3.584,3.584,0,0,0,1.334,2.889,3.809,3.809,0,0,1-2.445-3.556v-40.9A7.751,7.751,0,0,1,70.459,256.052Z" fill="url(#e)"/><path d="M112.023,242.05l-36.23,21.338v14l36.23-21.115Z" fill="#0073ec"/><path d="M150.031,238.716,75.793,282.28v5.334l74.237-43.564Z" fill="#e3e7f3"/><path d="M123.359,265.388,75.793,293.393v5.334l47.565-28.006Z" fill="#e3e7f3"/><path d="M391.191,116.468h1.334V258.053h-1.334Z" fill="#49486b"/><path d="M391.191,211.821c-11.78-6.668-21.338-1.111-21.338,12.447a47.938,47.938,0,0,0,21.338,37.119c11.78,6.89,21.338,1.334,21.338-12.447A47.679,47.679,0,0,0,391.191,211.821Z" fill="#5d629e"/><path d="M389.635,211.821c-11.78-6.668-21.338-1.111-21.338,12.447a47.938,47.938,0,0,0,21.338,37.119c11.78,6.89,21.338,1.334,21.338-12.447A48.294,48.294,0,0,0,389.635,211.821Z" fill="#49486b"/><path d="M399.193,241.827a3.237,3.237,0,0,0-1.334-2l-.445-.222c.889.445,1.334-.222,1.334-1.334a3.237,3.237,0,0,0-1.334-2l-3.112-1.556-2.889-1.334a2.819,2.819,0,0,1,.222-1.334V231.6a9.116,9.116,0,0,0,.222-2.445v-2.223a1.921,1.921,0,0,0-.667-1.334c-.222-.222-.445-.445-.667-.445-.667-.222-1.111,0-1.111.667a8.918,8.918,0,0,1-.667,3.334l-1.556,2.223-1.111-.667v-1.556c0-.222,0-.222-.222-.445l-4.223-2,.445,9.558v4.668l4.223,2h.222v-1.334l.667.445h.222l.222.222c.222.222.222.222.222.445l1.334,2.445a1.735,1.735,0,0,0,.889.889l5.779,2.889c.445.222.889.222,1.111-.222a.816.816,0,0,0,.222-.667,3.168,3.168,0,0,0-1.334-2.667l1.334.667c.445.222.889.222,1.111-.222a.816.816,0,0,0,.222-.667,3.168,3.168,0,0,0-1.334-2.667l1.334.667c.222.445.889-.222.667-1.334Z" fill="#fff"/><path d="M391.191,113.579c-11.78-6.668-21.338-1.111-21.338,12.447a47.938,47.938,0,0,0,21.338,37.119c11.78,6.89,21.338,1.334,21.338-12.447a47.333,47.333,0,0,0-21.338-37.119Z" fill="#fec111"/><path d="M389.635,113.579c-11.78-6.668-21.338-1.111-21.338,12.447a47.938,47.938,0,0,0,21.338,37.119c11.78,6.89,21.338,1.334,21.338-12.447a47.938,47.938,0,0,0-21.338-37.119Z" fill="#fdd900"/><path d="M391.191,149.586a4.188,4.188,0,0,1-1.778-.445l-3.556-2,1.111-1.778,3.556,2a1.448,1.448,0,0,0,2-.445c.222-.222.222-.445.222-.889v-2.667a1.222,1.222,0,0,0-.667-1.111l-4.445-2.667a4.584,4.584,0,0,1-2.223-3.779v-3.112A2.942,2.942,0,0,1,388.3,129.8a4.121,4.121,0,0,1,1.556.445l4.445,2.667-1.111,1.778-4.445-2.667c-.445-.222-.889-.222-1.111.222,0,.222-.222.222-.222.445v3.112a2.334,2.334,0,0,0,1.111,2l4.445,2.667a3.469,3.469,0,0,1,1.778,2.889v2.667a3.511,3.511,0,0,1-3.556,3.556Z" fill="#fff"/><path d="M389.191,127.8h2.223v3.112h-2.223Z" fill="#fff"/><path d="M389.191,148.253h2.223v3.112h-2.223Z" fill="#fff"/><path d="M339.181,328.734v4.89a2.978,2.978,0,0,1-1.778,2.889l-.667.445a9.751,9.751,0,0,1-9.558.222l-8.891-4.668a1.793,1.793,0,0,1-.667-2l.667-.667a10.217,10.217,0,0,1,5.334-2.223,9.968,9.968,0,0,0,2.445.222l4,.667,9.113.222Z" fill="#9aa7d5"/><path d="M318.51,331.4l8.891,4.668a9.765,9.765,0,0,0,9.558-.222l.667-.445a3.469,3.469,0,0,0,1.778-2.889v1.111a2.978,2.978,0,0,1-1.778,2.889l-.667.445a9.751,9.751,0,0,1-9.558.222l-8.891-4.668a1.688,1.688,0,0,1-.667-2C317.843,330.957,318.065,331.179,318.51,331.4Z" fill="#373750"/><path d="M324.955,330.734l-1.111-.445,1.334-2.445h1.334l-1.556,2.889Z" fill="#fff"/><path d="M326.956,331.4l-.889-.667,1.334-2.667,1.111.222Z" fill="#fff"/><path d="M324.733,338.736v4.89a2.978,2.978,0,0,1-1.778,2.889l-.667.445a9.751,9.751,0,0,1-9.558.222l-8.891-4.668a1.793,1.793,0,0,1-.667-2l.667-.667a10.217,10.217,0,0,1,5.334-2.223,9.968,9.968,0,0,0,2.445.222l4,.667,9.113.222Z" fill="#9aa7d5"/><path d="M304.062,341.4l8.891,4.668a9.765,9.765,0,0,0,9.557-.222l.667-.445a3.469,3.469,0,0,0,1.778-2.889v1.111a2.978,2.978,0,0,1-1.778,2.889l-.667.445a9.751,9.751,0,0,1-9.557.222l-8.891-4.668a1.688,1.688,0,0,1-.667-2A3.067,3.067,0,0,0,304.062,341.4Z" fill="#373750"/><path d="M336.069,266.5a2.524,2.524,0,0,0,1.778-.667l5.112-4.89a18.181,18.181,0,0,0,.445-25.561,12.7,12.7,0,0,0-1.778-1.556l-5.557-4.445a2.78,2.78,0,0,0-3.779.667,2.725,2.725,0,0,0,.445,3.556l5.557,4.445a12.728,12.728,0,0,1,1.778,18,2.679,2.679,0,0,1-1.111,1.111l-5.112,4.89a2.558,2.558,0,0,0,0,3.779A11.975,11.975,0,0,0,336.069,266.5Z" fill="#0073ec"/><path d="M334.735,334.068a4.329,4.329,0,0,0,4.223-4.668L337.4,299.395l2-32.673a4.7,4.7,0,0,0-4.668-4.668c-2.667,0-7.779,2.223-7.779,4.668l2.889,62.457a5.255,5.255,0,0,0,4.89,4.89Z" fill="#49486b"/><path d="M320.065,344.07a4.7,4.7,0,0,0,4.668-4.668l-.667-32.007,3.556-30.451c0-2.667-5.112-4.668-7.779-4.668a4.7,4.7,0,0,0-4.668,4.668V339.4a5.055,5.055,0,0,0,4.89,4.668Z" fill="#49486b"/><path d="M338.069,261.387l2,15.114a5.712,5.712,0,0,1-2.667,4.668l-12.447,6.89a4.962,4.962,0,0,1-6.668-1.778,4.48,4.48,0,0,1-.667-2.445V253.163c0-1.778-4-.667-2.223-1.556l17.337-10c3.334-2,5.334,15.781,5.334,19.782Z" fill="#49486b"/><path d="M334.291,261.831a2.752,2.752,0,0,0,.222,3.779,2.7,2.7,0,0,0,3.556,0l2.889-2.889a4.894,4.894,0,0,0-.222-1.778,46.454,46.454,0,0,1-.222-5.557l-1.334,1.334-4.89,5.112Z" fill="#231f20" opacity="0.3"/><path d="M339.625,237.16l-.889,14.67c.222,3.112.222,6.223.445,9.335.445,4.89.889,10,.889,14.892-.222,1.111-3.334,3.556-7.335,5.779-.445.222-.667-9.335-1.111-9.113s-.667,10-1.111,10.224c-5.112,2.223-11.336,3.779-15.559,1.778l.445-17.781-.889-11.113c-.445-7.557-2-17.781,5.557-22.449l.889-.667,8-4.445a5.818,5.818,0,0,1,6,0,9.2,9.2,0,0,1,4.668,8.891Z" fill="#0073ec"/><path d="M327.623,233.159a2.568,2.568,0,0,0,2.667-2.667V219.823a2.685,2.685,0,0,0-2.889-2.445,2.627,2.627,0,0,0-2.445,2.445v10.669a2.453,2.453,0,0,0,2.667,2.667Z" fill="#f2b0b3"/><path d="M324.733,230.047h5.112v-18H316.509v9.335C316.732,223.379,319.621,230.047,324.733,230.047Z" fill="#f2b0b3"/><path d="M317.621,212.043v9.335a8.541,8.541,0,0,0,8.668,8.668H325.4a8.541,8.541,0,0,1-8.668-8.668v-9.335Z" fill="#f5c3c3"/><path d="M313.62,208.487a2.783,2.783,0,0,1,3.556-1.556h.222a1.692,1.692,0,0,0,2,.222,2.508,2.508,0,0,1,2.445-.667c.445,0,1.111.445,1.556.445,1.111,0,1.778-.889,2.889-.445a6.154,6.154,0,0,0,2,.222,3.138,3.138,0,0,1,2,.222c1.111.445,1.111,1.334,1.778,2.223s1.334.222,2.223.889a2.122,2.122,0,0,1,.445,2.223c-.222.445-.445.667-.222,1.111s.445.445.667.667c.667.667.222,1.778-.445,2.667a.688.688,0,0,0-.222.445c0,.222.222.445.445.667a2.336,2.336,0,0,1-.222,3.112c-.445.445-.889.667-1.111,1.111a1.336,1.336,0,0,0,.222.889,2.544,2.544,0,0,1-1.334,2.889c-1.334.667,0,2.889-2,2.889-1.556.222-2.889-1.778-3.112-2.889,0,.222-.889-.445-1.111-.445a3.159,3.159,0,0,1-.445-1.334,9.453,9.453,0,0,1-.445-2.445,21.562,21.562,0,0,0-.222-3.779,6.154,6.154,0,0,1-2-.222c-1.334-.667-.889-1.556-1.334-2.445-.222-.445-.889-.667-1.111-1.111a5.523,5.523,0,0,1-.222-1.778,6.853,6.853,0,0,1-4.223,0c-1.111-.445-2.445-1.111-2.445-2.445a1.047,1.047,0,0,1-.222-1.334Z" fill="#373750"/><path d="M313.175,210.043c0,1.334,1.556,2,2.445,2.445a3.842,3.842,0,0,0,2.223.222,9.628,9.628,0,0,1-1.111-.222c-1.111-.445-2.445-1.111-2.445-2.445a4.121,4.121,0,0,1,.445-1.556,3.155,3.155,0,0,1,2-1.778,2.725,2.725,0,0,0-3.112,1.778A1.875,1.875,0,0,0,313.175,210.043Z" fill="#ef9ea3" opacity="0.2"/><circle cx="2" cy="2" r="2" transform="translate(321.621 217.6)" fill="#f2b0b3"/><path d="M310.73,340.959l-1.111-.445,1.334-2.445h1.334l-1.556,2.889Z" fill="#fff"/><path d="M312.731,341.4l-1.111-.445,1.556-2.889,1.111.222Z" fill="#fff"/><path d="M320.955,245.161l-13.558-.445a13.29,13.29,0,0,1-11.113-6.668l-10-18a2.59,2.59,0,0,1,1.111-3.556,2.724,2.724,0,0,1,3.556.889l10,18.226a7.888,7.888,0,0,0,6.446,4l13.558.445a2.568,2.568,0,0,1,2.667,2.667A2.3,2.3,0,0,1,320.955,245.161Z" fill="#f2b0b3"/><path d="M320.955,245.606l-13.558-.445a13.881,13.881,0,0,1-11.336-6.89l-8-14.447a3.092,3.092,0,0,1,2-3.779,2.776,2.776,0,0,1,2.889.889l8,14.447a7.3,7.3,0,0,0,6.224,3.779l13.558.445a3.019,3.019,0,0,1,.667,6Z" fill="#0073ec"/><path d="M291.171,218.934a.426.426,0,0,1-.667-.222l-3.334-5.779a.5.5,0,0,1,.889-.445l3.334,5.779C291.615,218.489,291.393,218.711,291.171,218.934Z" fill="#f2b0b3"/><path d="M105.577,446.98l-4.445.889a32.873,32.873,0,0,0-6.89-5.557c-15.114-8.891-39.786-8.891-54.678,0a32.873,32.873,0,0,0-6.89,5.557l-4.445-.889v4.668c0,5.779,3.779,11.558,11.336,15.781,15.114,8.891,39.786,8.891,54.678,0,7.557-4.445,11.336-10.224,11.336-15.781Z" fill="#e1e4f0"/><path d="M39.564,430.755c15.114-8.891,39.786-8.891,54.678,0s15.114,22.894,0,31.562-39.786,8.891-54.678,0-15.114-22.894,0-31.562Z" fill="#fff"/><path d="M43.342,432.755c13.114-7.557,34.229-7.557,47.343,0s12.892,19.782,0,27.339-34.229,7.557-47.343,0S30.228,440.312,43.342,432.755Z" fill="#d3d8ea"/><path d="M47.121,435.422c10.891-6.224,28.673-6.224,39.564,0s10.891,16.226,0,22.449-28.673,6.224-39.564,0S36.23,441.424,47.121,435.422Z" fill="#fff"/><path d="M50.677,437.423a35.78,35.78,0,0,1,32.229,0c8.891,5.112,8.891,13.114,0,18.226a35.78,35.78,0,0,1-32.229,0C41.786,450.537,41.786,442.313,50.677,437.423Z" fill="#d3d8ea"/><path d="M54.233,440.09a30.376,30.376,0,0,1,24.894,0c6.89,3.556,6.89,9.335,0,12.892a30.376,30.376,0,0,1-24.894,0c-6.89-3.556-6.89-9.335,0-12.892Z" fill="#fff"/><path d="M59.123,442.535a17.961,17.961,0,0,1,15.114,0c4.223,2.223,4.223,5.779,0,7.779a17.961,17.961,0,0,1-15.114,0c-4.223-2-4.223-5.557,0-7.779Z" fill="#d3d8ea"/><path d="M66.68,447.425a1.912,1.912,0,0,1-1.778-1.778V364.964a1.662,1.662,0,0,1,2-1.556,1.519,1.519,0,0,1,1.556,1.556v80.683a1.636,1.636,0,0,1-1.778,1.778Z" fill="#5d6873"/><path d="M67.125,372.3c19.56,10,38.9,18,38.9,18-7.113,15.114-38.9,19.782-38.9,19.782Z" fill="#052761"/><path d="M4.223,96.242,99.576,41.564a4.68,4.68,0,0,1,5.557.445l4.89,4.223L111.356,97.8a8.578,8.578,0,0,1-4.223,7.335l-43.12,24.449-22,12.669L10.447,161.144h-6A4.458,4.458,0,0,1,0,156.7V103.577A8.312,8.312,0,0,1,4.223,96.242Z" fill="url(#f)"/><path d="M111.356,49.566V97.8a8.578,8.578,0,0,1-4.223,7.335L47.565,139.584,43.12,156.032a4.028,4.028,0,0,1-4.89,2.667c-.222,0-.445-.222-.667-.222l-12-6-13.336,7.779a4.754,4.754,0,0,1-6.446-1.778,4.481,4.481,0,0,1-.667-2.445v-48.9A8.578,8.578,0,0,1,9.335,99.8L104.021,45.12a4.754,4.754,0,0,1,6.446,1.778,4.271,4.271,0,0,1,.889,2.667Z" fill="#edeff8"/><path d="M86.462,72.682l2.445,5.779,7.113-4c.222,0,.445,0,.445.222V74.9L91.8,83.795l1.556,7.557c0,.222-.222.445-.445.667l-6-.667-6.223,7.779c-.222.222-.222.222-.445,0v-.222l.889-8.446-5.779-3.334v-.445l7.557-4.445,3.334-9.558h.222Z" fill="#0073ec"/><path d="M58.9,88.685l2.667,5.779,7.113-4c.222,0,.445,0,.445.222v.222L64.458,99.8l1.334,7.557c0,.222-.222.445-.445.667l-6-.667-6,7.557c-.222.222-.222.222-.445,0v-.222l.889-8.446L48.01,102.91v-.445l7.557-4.445L58.9,88.463c-.222,0,0,0,0,.222.222-.222.222,0,0,0Z" fill="#0073ec"/><path d="M31.562,104.688l2.667,5.779,7.113-4c.222,0,.445,0,.445.222v.222L37.119,115.8l1.334,7.557c0,.222-.222.445-.445.667l-6-.667-6.223,7.779c-.222.222-.222.222-.445,0v-.222l.889-8.446-6-3.334v-.445l7.557-4.445,3.334-9.558c0-.222.222-.222.445,0Z" fill="#0073ec"/></g></g></svg>