<svg xmlns="http://www.w3.org/2000/svg" xmlns:xlink="http://www.w3.org/1999/xlink" width="100" height="100" viewBox="0 0 100 100"><defs><clipPath id="a"><rect width="100" height="100" transform="translate(1254 1657)" fill="#0948b3" stroke="#707070" stroke-width="1"/></clipPath></defs><g transform="translate(-1254 -1657)" clip-path="url(#a)"><g transform="translate(1254 1666.359)"><path d="M607.375,186.689a1.6,1.6,0,0,0-1.315-1.461c-9.207-1.608-21.386-8.817-21.483-8.866a1.583,1.583,0,0,0-1.608,0c-.146.049-12.276,7.259-21.532,8.866a1.658,1.658,0,0,0-1.315,1.413,47.363,47.363,0,0,0,22.8,43.259,1.53,1.53,0,0,0,1.656,0,47.1,47.1,0,0,0,20.7-27.378A49.1,49.1,0,0,0,607.375,186.689Zm-42.382,15.15a47.791,47.791,0,0,1-1.8-13.738c7.064-1.51,15.15-5.6,19-7.7v45.305A42.175,42.175,0,0,1,564.993,201.839Zm37.267-.049A43.461,43.461,0,0,1,585.4,225.612V180.5c3.9,2.143,11.838,6.138,18.853,7.648A49.845,49.845,0,0,1,602.26,201.79Z" transform="translate(-507.412 -176.142)" fill="#0948b3"/><path d="M572.062,230.3a1.57,1.57,0,0,0-1.559,1.559v26.988a2.983,2.983,0,0,1-2.971,2.972H487.2a2.983,2.983,0,0,1-2.972-2.972V204.92a2.983,2.983,0,0,1,2.972-2.972h42.431a1.559,1.559,0,0,0,0-3.118H487.2a6.092,6.092,0,0,0-6.089,6.089V258.9a6.092,6.092,0,0,0,6.089,6.089h80.283a6.092,6.092,0,0,0,6.089-6.089V231.908A1.511,1.511,0,0,0,572.062,230.3Z" transform="translate(-481.111 -183.705)" fill="#0948b3"/><path d="M504.738,231.251a7.525,7.525,0,0,0,5.943-2.923,7.454,7.454,0,0,0,5.943,2.923,7.551,7.551,0,1,0-5.943-12.179,7.454,7.454,0,0,0-5.943-2.923,7.551,7.551,0,1,0,0,15.1Zm11.935-11.935a4.384,4.384,0,1,1-4.384,4.384A4.366,4.366,0,0,1,516.673,219.316Zm-11.935,0a4.384,4.384,0,1,1-4.384,4.384A4.429,4.429,0,0,1,504.738,219.316Z" transform="translate(-486.469 -189.478)" fill="#0948b3"/><path d="M530.946,261.089H498.892a1.57,1.57,0,0,0-1.559,1.559,1.6,1.6,0,0,0,1.559,1.559h32.055a1.559,1.559,0,1,0,0-3.118Z" transform="translate(-486.518 -204.457)" fill="#0948b3"/><path d="M530.946,276.215H498.892a1.57,1.57,0,0,0-1.559,1.559,1.6,1.6,0,0,0,1.559,1.559h32.055a1.559,1.559,0,1,0,0-3.118Z" transform="translate(-486.518 -209.499)" fill="#0948b3"/><path d="M557.423,279.406h29.716a1.57,1.57,0,0,0,1.559-1.559,1.6,1.6,0,0,0-1.559-1.559H557.423a1.559,1.559,0,1,0,0,3.118Z" transform="translate(-506.028 -209.524)" fill="#0948b3"/></g></g></svg>