<svg xmlns="http://www.w3.org/2000/svg" xmlns:xlink="http://www.w3.org/1999/xlink" width="504.304" height="470.843" viewBox="0 0 504.304 470.843"><defs><radialGradient id="a" cx="-6.324" cy="0.107" r="7.399" gradientTransform="translate(0.099) scale(0.802 1)" gradientUnits="objectBoundingBox"><stop offset="0" stop-color="#01c8ef"/><stop offset="0.089" stop-color="#03bee9"/><stop offset="0.239" stop-color="#08a5d7"/><stop offset="0.429" stop-color="#107bbb"/><stop offset="0.446" stop-color="#1177b8"/><stop offset="1" stop-color="#112564"/></radialGradient></defs><g transform="translate(-9.974 -8.303)"><path d="M192.525,338.166c-14.211,8.2-37.248,8.2-51.457,0s-14.21-21.5,0-29.708,37.247-8.2,51.456,0,14.211,21.505,0,29.708ZM499.275,455.18c-20,11.549-52.436,11.549-72.441,0s-20.005-30.273,0-41.823,52.437-11.548,72.441,0S519.28,443.631,499.275,455.18Z" fill="#c4d9e8" opacity="0.5"/><path d="M145.93,65.089s.949,19.566,2.438,32.716,33.157-10.1,33.157-10.1V72.733l-35.6-7.644Z" fill="#030303"/><path d="M162.8,308.527c.476,1.189,8.68,11.178,16.886,13.674a18.86,18.86,0,0,0,7.537,1.042,2.486,2.486,0,0,0,2.021-3.312A31.166,31.166,0,0,0,173.5,302.579C159.586,295.684,162.8,308.527,162.8,308.527Zm-2.735,3.837a67.893,67.893,0,0,1,4.042,13.319c.581,3.7-1.449,8.5-3.121,11.69a3.416,3.416,0,0,1-5.321.921,19.739,19.739,0,0,1-6.66-12.73c-.951-10.228,0-12.012,0-12.012Z" fill="#173d7a"/><path d="M140.295,188.756a194.578,194.578,0,0,0,0,27.171c1.07,14.27,4.9,81.006,5.616,97.06,0,0-.357,4.861,9.052,3.791s8.652-6.467,8.652-6.467,13.214-.178,13.631-7.967,13.533-93.014,13.533-123.654l-50.484,10.066Z" fill="#fdd762"/><path d="M195.669,122.053l6.474,10.027L224.4,158.961a4.989,4.989,0,0,1-3.535,3.147c-2.165.51-20.883-17.348-28.966-25.184a6.21,6.21,0,0,1-.854-7.889l4.627-6.982Z" fill="#ffc2b0"/><path d="M183.038,80.894s10.283-.267,13.864,14.6,6.381,33.475,3.266,35.021c-9.346,4.643-15.262-.79-15.262-.79l-1.868-48.828Z" fill="#b1aeb5"/><path d="M186.115,81.525a8.412,8.412,0,0,0-5.551-.3C171.8,83.736,138.858,93.4,133.428,98.046c-6.273,5.362,9.408,35.493,9.182,45.372s-1.339,21.524-2.212,32.264-2.055,16.626,6.729,21.192,23.782,4.777,35.007-3.777,9.191-14.407,8.724-20.618-4.291-33.068-3.959-40.692a28.894,28.894,0,0,0,6.887-7.912c2.93-5-2.246-14.184-4.4-20.156s1.211-12.8.546-17.674a5.532,5.532,0,0,0-3.822-4.52Z" fill="#fff"/><ellipse cx="12.479" cy="9.906" rx="12.479" ry="9.906" transform="matrix(0.992, -0.127, 0.127, 0.992, 149.568, 85.145)" fill="#fff"/><ellipse cx="8.918" cy="7.08" rx="8.918" ry="7.08" transform="matrix(0.992, -0.127, 0.127, 0.992, 153.464, 87.49)" fill="#ffc2b0"/><path d="M167.2,79.516s-5.948-4.892-7.116-2.415-2.132,13.108-2.132,13.108l11.812,3.173-1.793-10.771s2.364-2-.771-3.1Z" fill="#ffc2b0"/><circle cx="17.634" cy="17.634" r="17.634" transform="translate(150.418 49.192)" fill="#ffc2b0"/><path d="M159.259,80.184c-.1.554-.205,1.15-.3,1.758,1.187,6.134,10.366,8.821,10.366,8.821l-1.356-8.151s1.113-.944.8-1.889C165.138,79.577,160.566,78.563,159.259,80.184Z" fill="#ea9c92"/><circle cx="17.634" cy="17.634" r="17.634" transform="translate(150.418 49.192)" fill="#ffc2b0"/><path d="M124.6,141.469l1.975,47.189,6.9.711,4.489-42.479Z" fill="#ffc2b0"/><path d="M147.275,137.525c-2.283-10.076-6.792-32.338-6.792-32.338l-1.928,22.143c2.225,6.567,4.134,12.594,4.055,16.088-.133,5.8-.573,12.207-1.09,18.683v.02s8.039-14.519,5.754-24.6Z" fill="#b1aeb5"/><path d="M134.745,97.079s-5.515,2.108-8.638,19.052-5.457,33.917.109,36.1,10.216,3.833,11.853-.7,2.651-26.369,2.856-34.223.505-18.681-6.18-20.233Z" fill="#fff"/><path d="M222.747,157a14.813,14.813,0,0,1,5.146,3.45,33.672,33.672,0,0,1,3.517,4.721c1.719,2.563,3.166,8.1,2.119,8.793s-7.039-9.276-8.006-6.958.008,4.461-1.23,4.5-5.546-10.019-8.933-13.135S222.747,157,222.747,157Z" fill="#ffc2b0"/><path d="M163.615,310.311a26.938,26.938,0,0,0,3.775-.391l2.587-103.738Z" fill="#d8892b"/><path d="M126.633,188.263s-1.823,11.014-1.549,14.543,2.163,9.347,3.6,9.223.047-14.186,2.564-12.785,2.781,3.8,3.922,2.956-1.988-12.869-1.154-18.083-7.378,4.146-7.378,4.146Z" fill="#ffc2b0"/><path d="M174.824,68.365c8.847,3.142,10.568,1.226,10.652,1.123.081-.533.146-1.073.179-1.622a17.576,17.576,0,0,0-.589-5.635l-22.95-3.1S165.741,65.139,174.824,68.365Z" fill="#ea9c92"/><path d="M186.29,50.3c-2.084-1.787-9.606-10.623-23.083-8.537-8.423,1.3-15.523,7.049-17.1,20.155a30.119,30.119,0,0,0,8.15,23.96,7.231,7.231,0,0,0,.958-.485c3.375-2.222,3.738-3.443,3.738-3.454l.746-6.688a1.87,1.87,0,0,0-1.682-1.854,3.364,3.364,0,0,1-2.469-1.5c-1.936-2.531-1.042-6.478,2.829-6.626a2.967,2.967,0,0,0,3.093-2.2,1.584,1.584,0,0,1,2.066-1.075c4.405,1.594,15.258,5.03,22.242,3.051C194.715,62.509,188.375,52.084,186.29,50.3Z" fill="#030303"/><path d="M176.241,76.331l5.4-1.481s-2.575,4.05-6.334,5.083-4.345-2.149-4.345-2.149l5.284-1.453Z" fill="#fff"/><path d="M342.055,449.714,219.948,380.089c-4.465-2.578-3.9-7.082,1.251-10.06l70.258-40.562c5.155-2.978,12.956-3.3,17.421-.724L430.985,398.37c4.464,2.578,3.9,7.082-1.251,10.059l-70.258,40.563c-5.157,2.977-12.957,3.3-17.421.722Z" fill="#c4d9e8" opacity="0.5"/><path d="M441.87,374.934V89.87L328.544,60.209,307.671,48.158c-4.79-2.766-13.158-2.419-18.69.774L269.506,60.176l-60.445-.035,17.9,275.189c-.136,1.872.908,3.679,3.209,5.007l113.093,85.334c4.79,2.766,13.158,2.419,18.69-.775l75.369-43.514c3.191-1.842,4.731-4.228,4.55-6.448Z" fill="#396caa"/><path d="M299,46.305a21.56,21.56,0,0,0-10.018,2.627L269.5,60.176l-60.445-.035V345.972c-.137,1.871.907,3.679,3.21,5.006l130.99,74.693a16.928,16.928,0,0,0,8.674,1.854l1.35-287.617L299,46.3Z" fill="#d4ecff"/><path d="M344.464,426.261c4.132,1.769,10.108,1.671,14.939-.171V136.509H344.464V426.261Z" fill="#5793ce"/><path d="M343.261,139.942,212.271,65.25c-4.79-2.766-4.191-7.6,1.341-10.791l75.369-43.514c5.532-3.194,13.9-3.541,18.69-.775l130.99,74.692c4.79,2.766,4.19,7.6-1.341,10.791l-75.369,43.514c-5.532,3.194-13.9,3.541-18.69.775Z" fill="#d4ecff"/><path d="M437.32,90.353l-75.369,43.515c-5.532,3.194-13.9,3.542-18.69.774L212.271,59.95a7.229,7.229,0,0,1-2.392-2.121c-1.646,2.648-.9,5.522,2.392,7.421l130.99,74.692c4.79,2.766,13.158,2.419,18.69-.775L437.32,95.654c4.3-2.482,5.6-5.949,3.732-8.671a10.439,10.439,0,0,1-3.732,3.37Z" fill="#fafdff"/><path d="M346.967,109.67,259.756,59.117c-2.242-1.295-1.96-3.555.628-5.05L295.652,33.7c2.59-1.495,6.506-1.657,8.747-.362L391.609,83.9c2.243,1.294,1.962,3.555-.627,5.049l-35.269,20.362c-2.589,1.5-6.505,1.658-8.746.363Z" fill="#173d7a"/><path d="M299.884,61.388l-5.054-2.917c-.311-.18-.271-.492.088-.7l4.879-2.817a1.35,1.35,0,0,1,1.211-.051l5.053,2.918c.311.179.271.491-.087.7L301.1,61.337a1.347,1.347,0,0,1-1.211.051ZM316.767,71.1l-5.054-2.917c-.31-.179-.271-.493.088-.7l4.879-2.818a1.346,1.346,0,0,1,1.211-.05l5.053,2.918c.311.179.271.492-.087.7l-4.879,2.817a1.343,1.343,0,0,1-1.211.051ZM333.649,80.8,328.6,77.886c-.31-.179-.271-.493.088-.7l4.88-2.817a1.344,1.344,0,0,1,1.21-.05l5.053,2.917c.311.179.272.492-.087.7l-4.879,2.817a1.346,1.346,0,0,1-1.211.05Zm16.885,9.708-5.055-2.918c-.311-.179-.271-.491.087-.7l4.881-2.817a1.342,1.342,0,0,1,1.209-.05l5.053,2.917c.311.179.272.492-.087.7l-4.879,2.817a1.339,1.339,0,0,1-1.209.05Z" fill="#d4ecff"/><path d="M259.756,59.117l.1.06a6.111,6.111,0,0,1,.525-.361l35.268-20.363c2.59-1.495,6.506-1.657,8.747-.362l87.107,50.494c2.065-1.479,2.174-3.493.1-4.688L304.4,33.344c-2.241-1.294-6.157-1.132-8.747.362L260.384,54.068C257.8,55.563,257.514,57.822,259.756,59.117Zm69.033,137.3L232,140.538c-2.79-1.611-5.053-5.933-5.053-9.654V113.153c0-3.721,2.263-5.431,5.053-3.819l96.789,55.881c2.79,1.612,5.053,5.933,5.053,9.654V192.6C333.842,196.321,331.579,198.031,328.789,196.419Z" fill="#5793ce"/><path d="M321.468,180.744l-4.548-2.626a2.639,2.639,0,0,1-1.1-2.1v-4.858c0-.812.494-1.184,1.1-.833l4.548,2.627a2.637,2.637,0,0,1,1.1,2.1v4.858C322.57,180.723,322.076,181.1,321.468,180.744Zm-15.208-8.781-4.549-2.626a2.638,2.638,0,0,1-1.1-2.1v-4.858c0-.812.493-1.184,1.1-.833l4.549,2.626a2.636,2.636,0,0,1,1.1,2.1v4.859C307.36,171.942,306.868,172.314,306.26,171.963Z" fill="#173d7a"/><path d="M328.789,260.488,232,204.606c-2.79-1.61-5.053-5.933-5.053-9.653V177.22c0-3.72,2.263-5.429,5.053-3.819l96.789,55.882c2.79,1.611,5.053,5.933,5.053,9.653v17.732C333.842,260.389,331.579,262.1,328.789,260.488Z" fill="#5793ce"/><path d="M321.468,244.812l-4.548-2.626a2.641,2.641,0,0,1-1.1-2.1v-4.859c0-.811.494-1.184,1.1-.832l4.548,2.625a2.64,2.64,0,0,1,1.1,2.1v4.858C322.57,244.791,322.076,245.163,321.468,244.812Z" fill="#173d7a"/><path d="M306.26,236.031l-4.549-2.626a2.639,2.639,0,0,1-1.1-2.1v-4.859c0-.811.493-1.184,1.1-.832l4.549,2.625a2.639,2.639,0,0,1,1.1,2.1V235.2C307.36,236.01,306.868,236.382,306.26,236.031Z" fill="#d4ecff"/><path d="M328.789,324.555,232,268.674c-2.79-1.611-5.053-5.932-5.053-9.654V241.289c0-3.721,2.263-5.431,5.053-3.819l96.789,55.88c2.79,1.611,5.053,5.935,5.053,9.654v17.731C333.842,324.457,331.579,326.166,328.789,324.555Z" fill="#5793ce"/><path d="M321.468,308.88l-4.548-2.627a2.639,2.639,0,0,1-1.1-2.1v-4.858c0-.811.494-1.184,1.1-.832l4.548,2.626a2.643,2.643,0,0,1,1.1,2.1v4.859C322.57,308.858,322.076,309.231,321.468,308.88Z" fill="#d4ecff"/><path d="M306.26,300.1l-4.549-2.626a2.641,2.641,0,0,1-1.1-2.105v-4.857c0-.812.493-1.184,1.1-.833l4.549,2.627a2.633,2.633,0,0,1,1.1,2.1v4.857C307.36,300.078,306.868,300.451,306.26,300.1Z" fill="#173d7a"/><path d="M328.789,388.623,232,332.741c-2.79-1.61-5.053-5.933-5.053-9.652V305.358c0-3.722,2.263-5.432,5.053-3.82l96.789,55.882c2.79,1.61,5.053,5.933,5.053,9.652V384.8C333.842,388.523,331.579,390.233,328.789,388.623Z" fill="#5793ce"/><path d="M321.468,372.949l-4.548-2.627a2.642,2.642,0,0,1-1.1-2.1V363.36c0-.811.494-1.184,1.1-.832l4.548,2.625a2.64,2.64,0,0,1,1.1,2.1v4.859C322.57,372.926,322.076,373.3,321.468,372.949Zm-15.208-8.781-4.549-2.627a2.641,2.641,0,0,1-1.1-2.1v-4.859c0-.811.493-1.184,1.1-.832l4.549,2.625a2.641,2.641,0,0,1,1.1,2.105v4.857c0,.813-.493,1.185-1.1.835Z" fill="#d4ecff"/><path d="M376.667,196.419l49.585-28.39c2.79-1.611,5.053-5.933,5.053-9.653V140.644c0-3.72-2.263-5.43-5.053-3.819l-49.585,28.39c-2.79,1.612-5.053,5.933-5.053,9.654V192.6C371.614,196.321,373.877,198.031,376.667,196.419Zm0,64.069L426.252,232.1c2.79-1.611,5.053-5.933,5.053-9.654V204.712c0-3.722-2.263-5.431-5.053-3.82l-49.585,28.39c-2.79,1.611-5.053,5.933-5.053,9.653v17.732C371.614,260.389,373.877,262.1,376.667,260.488Zm0,64.067,49.585-28.39c2.79-1.61,5.053-5.933,5.053-9.652V268.78c0-3.72-2.263-5.43-5.053-3.819l-49.585,28.39c-2.79,1.611-5.053,5.935-5.053,9.654v17.731C371.614,324.457,373.877,326.166,376.667,324.555Zm0,64.068,49.585-28.39c2.79-1.611,5.053-5.934,5.053-9.653V332.848c0-3.721-2.263-5.431-5.053-3.818l-49.585,28.39c-2.79,1.61-5.053,5.933-5.053,9.652V384.8C371.614,388.523,373.877,390.233,376.667,388.623Z" fill="#173d7a"/><path d="M61.99,436.354,22.943,413.811c-2.4-1.384-2.1-3.8.671-5.4l37.7-21.769c2.767-1.6,6.953-1.771,9.35-.388L109.715,408.8c2.4,1.383,2.1,3.8-.672,5.4l-37.7,21.768c-2.767,1.6-6.954,1.771-9.35.387Z" fill="#c4d9e8" opacity="0.5"/><path d="M122.667,391.629v-16.87l-37.83-.021L71.761,367.19c-3-1.734-8.243-1.516-11.708.484l-12.2,7.043L9.99,374.7v17.351A3.394,3.394,0,0,0,12,395.185l48.9,28.229c3,1.732,8.243,1.516,11.708-.484l47.212-27.26c2-1.154,2.964-2.649,2.852-4.041Z" fill="#052761"/><path d="M66.329,366.027a13.494,13.494,0,0,0-6.276,1.646l-12.2,7.043L9.99,374.7v17.351A3.394,3.394,0,0,0,12,395.185l48.9,28.229a10.6,10.6,0,0,0,5.434,1.16V366.027Z" fill="#2672f5"/><path d="M14.275,374.7l-4.285,0v17.351A3.394,3.394,0,0,0,12,395.185l2.274,1.312V374.7Z" fill="#0948b3"/><path d="M61.649,423.782a13.334,13.334,0,0,0,9.359-.106v-19.7H61.649v19.807Z" fill="#0948b3"/><path d="M60.9,406.125,12,377.895c-3-1.732-2.625-4.758.84-6.758l47.212-27.259c3.465-2,8.707-2.218,11.708-.485l48.895,28.23c3,1.732,2.625,4.758-.84,6.76L72.6,405.64c-3.465,2-8.708,2.217-11.708.485Z" fill="#2672f5"/><path d="M61.776,401.043,20.8,377.387c-2.515-1.451-2.2-3.987.7-5.663l39.565-22.843c2.9-1.678,7.3-1.859,9.811-.406l40.974,23.656c2.516,1.452,2.2,3.987-.7,5.664L71.588,400.639c-2.9,1.675-7.3,1.857-9.812.4Z" fill="#052761"/><path d="M104.683,396.082a4.363,4.363,0,0,1-1.975,3.42c-1.091.631-1.975.119-1.975-1.141a4.366,4.366,0,0,1,1.975-3.42C103.8,394.313,104.683,394.824,104.683,396.082Zm6.354-3.668a4.366,4.366,0,0,1-1.975,3.42c-1.091.631-1.976.119-1.976-1.141a4.364,4.364,0,0,1,1.976-3.42C110.152,390.644,111.037,391.154,111.037,392.414Zm6.355-3.67a4.368,4.368,0,0,1-1.976,3.422c-1.091.63-1.975.119-1.975-1.141a4.362,4.362,0,0,1,1.975-3.42C116.507,386.975,117.392,387.486,117.392,388.744Z" fill="#fff"/><path d="M122.667,364.269V347.4l-37.83-.021-13.076-7.549c-3-1.732-8.243-1.516-11.708.484l-12.2,7.044L9.99,347.335v17.351A3.393,3.393,0,0,0,12,367.824l48.9,28.229c3,1.732,8.243,1.516,11.708-.486l47.212-27.257c2-1.155,2.964-2.65,2.852-4.041Z" fill="#052761"/><path d="M66.329,338.668a13.469,13.469,0,0,0-6.276,1.645l-12.2,7.044L9.99,347.335v17.351A3.393,3.393,0,0,0,12,367.824l48.9,28.229a10.607,10.607,0,0,0,5.434,1.16V338.668Z" fill="#2672f5"/><path d="M14.275,347.338l-4.285,0v17.351A3.393,3.393,0,0,0,12,367.824l2.274,1.313v-21.8Z" fill="#0948b3"/><path d="M61.649,396.422a13.351,13.351,0,0,0,9.359-.107v-19.7H61.649v19.808Z" fill="#0948b3"/><path d="M60.9,378.765,12,350.535c-3-1.734-2.625-4.76.84-6.76l47.212-27.258c3.465-2,8.707-2.219,11.708-.485l48.895,28.229c3,1.732,2.625,4.758-.84,6.76L72.6,378.278c-3.464,2-8.707,2.219-11.707.487Z" fill="#2672f5"/><path d="M61.776,373.684,20.8,350.026c-2.515-1.45-2.2-3.986.7-5.664l39.565-22.843c2.9-1.676,7.3-1.858,9.811-.4l40.974,23.656c2.516,1.451,2.2,3.989-.7,5.665L71.588,373.278c-2.9,1.675-7.3,1.857-9.812.406Z" fill="#052761"/><path d="M104.683,368.721a4.36,4.36,0,0,1-1.975,3.42c-1.091.631-1.975.119-1.975-1.139a4.368,4.368,0,0,1,1.975-3.422C103.8,366.95,104.683,367.461,104.683,368.721Zm6.354-3.668a4.367,4.367,0,0,1-1.975,3.42c-1.091.631-1.976.119-1.976-1.141a4.361,4.361,0,0,1,1.976-3.42C110.152,363.282,111.037,363.793,111.037,365.053Zm6.355-3.668a4.362,4.362,0,0,1-1.976,3.419c-1.091.63-1.975.12-1.975-1.14a4.363,4.363,0,0,1,1.975-3.42c1.091-.63,1.976-.119,1.976,1.141Z" fill="#fff"/><path d="M122.667,336.908V320.037l-37.83-.021-13.076-7.549c-3-1.734-8.243-1.516-11.708.484L47.853,320,9.99,319.975v17.35A3.4,3.4,0,0,0,12,340.464l48.9,28.229c3,1.732,8.243,1.516,11.708-.484l47.212-27.258c2-1.156,2.964-2.652,2.852-4.043Z" fill="#052761"/><path d="M66.329,311.307a13.493,13.493,0,0,0-6.276,1.645L47.853,320,9.99,319.975v17.35A3.4,3.4,0,0,0,12,340.464l48.9,28.229a10.607,10.607,0,0,0,5.434,1.161V311.307Z" fill="#2672f5"/><path d="M14.275,319.977l-4.285,0v17.35A3.4,3.4,0,0,0,12,340.464l2.274,1.312v-21.8Z" fill="#0948b3"/><path d="M61.649,369.061a13.34,13.34,0,0,0,9.359-.107v-19.7H61.649v19.806Z" fill="#0948b3"/><path d="M60.9,351.4,12,323.173c-3-1.731-2.625-4.759.84-6.759l47.212-27.258c3.465-2,8.707-2.219,11.708-.486l48.895,28.23c3,1.732,2.625,4.759-.84,6.76L72.6,350.918c-3.464,2-8.707,2.219-11.707.486Z" fill="#0948b3"/><path d="M119.816,320.34,72.6,347.6c-3.465,2-8.708,2.219-11.708.485L12,319.854a4.551,4.551,0,0,1-1.5-1.328c-1.031,1.658-.563,3.458,1.5,4.647L60.9,351.4c3,1.732,8.243,1.515,11.708-.486l47.212-27.258c2.692-1.555,3.51-3.726,2.338-5.432A6.53,6.53,0,0,1,119.816,320.34Z" fill="#2672f5"/><path d="M104.683,341.359a4.365,4.365,0,0,1-1.975,3.421c-1.091.63-1.975.119-1.975-1.14a4.361,4.361,0,0,1,1.975-3.42c1.091-.629,1.975-.118,1.975,1.139Zm6.354-3.668a4.367,4.367,0,0,1-1.975,3.421c-1.091.63-1.976.119-1.976-1.141a4.366,4.366,0,0,1,1.976-3.421C110.152,335.922,111.037,336.432,111.037,337.691Zm6.355-3.669a4.368,4.368,0,0,1-1.976,3.422c-1.091.63-1.975.119-1.975-1.141a4.365,4.365,0,0,1,1.975-3.421c1.091-.628,1.976-.118,1.976,1.14Z" fill="#fff"/><path d="M63.787,334.652,40.906,321.441c-1.4-.811-1.228-2.226.394-3.163l22.093-12.755a6.09,6.09,0,0,1,5.479-.228l22.88,13.21c1.4.811,1.229,2.227-.393,3.164L69.265,334.423a6.082,6.082,0,0,1-5.478.229Z" fill="#052761"/><path d="M65.978,323.592l-3.166-1.828c-.194-.112-.17-.309.055-.438l3.056-1.765a.837.837,0,0,1,.759-.03l3.165,1.826c.194.111.17.308-.054.438l-3.056,1.765A.85.85,0,0,1,65.978,323.592Z" fill="#fff"/><path d="M80,338.09l-3.166-1.829c-.194-.112-.169-.308.054-.438l3.057-1.765a.845.845,0,0,1,.758-.031l3.166,1.828c.194.111.169.308-.054.438l-3.058,1.764a.84.84,0,0,1-.757.033Zm6.915-4.033-3.166-1.828c-.194-.111-.17-.307.055-.438l3.056-1.764a.835.835,0,0,1,.758-.032l3.165,1.829c.194.111.17.307-.054.437l-3.056,1.765a.845.845,0,0,1-.758.031Z" fill="#2672f5"/><path d="M93.833,330.025,90.668,328.2c-.194-.111-.17-.308.054-.438l3.057-1.765a.842.842,0,0,1,.758-.032l3.166,1.827c.194.113.17.31-.055.438l-3.056,1.766a.844.844,0,0,1-.759.032Zm-52.927-8.584.065.037c.106-.076.206-.154.329-.227L63.393,308.5a6.093,6.093,0,0,1,5.479-.227l22.816,13.172c1.294-.926,1.362-2.188.064-2.938l-22.88-13.21a6.087,6.087,0,0,0-5.479.228L41.3,318.278c-1.622.938-1.8,2.353-.394,3.163Z" fill="#2672f5"/><path d="M46.283,382.33,26.488,370.9a5.293,5.293,0,0,1-2.209-4.222c0-1.627.989-2.375,2.209-1.672l19.8,11.43a5.291,5.291,0,0,1,2.21,4.222C48.493,382.286,47.5,383.035,46.283,382.33Z" fill="#052761"/><path d="M48.053,381.24l-19.8-11.43a5.291,5.291,0,0,1-2.209-4.221,3.163,3.163,0,0,1,.089-.736c-1.053-.383-1.86.358-1.86,1.826a5.293,5.293,0,0,0,2.209,4.222l19.8,11.429a1.317,1.317,0,0,0,2.12-.936,2.013,2.013,0,0,1-.349-.154Z" fill="#0948b3"/><path d="M492.269,419.246a9.509,9.509,0,0,1,5.362,9.506,16.078,16.078,0,0,1-.781,4.645c-1.1,2.318-4.722,5.5-10.495,3.215s-18.6-14.329-19.077-22.215C466.385,399.747,483.135,415.346,492.269,419.246Zm-33.925,24.23s1.385,8.446.712,9.995-4.69,4.852-10.628,4.137-23.016-6.6-26.819-17.859c-5.9-17.45,32.969,1.309,32.969,1.309l3.766,2.418Z" fill="#173d7a"/><path d="M441.654,308.451,440.332,440.3c.14,4.586,3.144,8.459,7.184,9.141q.747.127,1.605.2c4.091.357,6.474-1.4,7.832-3.24a9.681,9.681,0,0,0,1.764-5.324L460.4,384.8l8.4-50.326,11.627,89.071a7.7,7.7,0,0,0,3.193,5.864,8.9,8.9,0,0,0,5.3,1.438,9.739,9.739,0,0,0,7.048-3.471,7.064,7.064,0,0,0,1.684-4.769l-4.609-53.593-1.715-68.356Z" fill="#fdd762"/><path d="M496.731,265.145a4.8,4.8,0,0,1-.725-.055l-21.061-3.263a4.737,4.737,0,1,1,1.45-9.363l14.532,2.252-4.96-28.407a4.737,4.737,0,1,1,9.333-1.629l6.1,34.915a4.734,4.734,0,0,1-4.665,5.55Z" fill="#ffc2b0"/><path d="M477.5,197.769s7.039-.412,16.111,18.276-3.353,24.591-3.353,24.591Z" fill="#fff"/><path d="M458.185,202.661c.317-.128,19.419-12.428,26.481.443,11.512,20.988,10.835,88.547,7.2,97.3-3.365,8.1-11.767,14.069-17.653,17.433a35.256,35.256,0,0,1-17.134,4.873c-5.971.049-17.417-5.258-17-13.062,1.911-35.892-1.263-66.144-4.192-95.5,0,0,3.662-3.943,22.3-11.488Z" fill="#fff"/><path d="M428.05,275.953a4,4,0,0,0,1.592-.408,4.964,4.964,0,0,0,2.638-3.785l9.082-26.48c.4-2.735-4.368-13.4-6.8-13.854s-8.612,4.386-9.017,7.121l-2.23,23.661L400.9,251.178c-2.327-1.226-4.252-3.718-5.628-1.415a5.412,5.412,0,0,0,1.221,6.966l28.891,18.377a4.115,4.115,0,0,0,2.67.847Z" fill="#ffc2b0"/><path d="M399.15,250.294l-1.412-3.448a9.143,9.143,0,0,0-2.265-3.259l-5.913-5.452a1.15,1.15,0,0,0-1.625,1.623l2.47,2.684a1.6,1.6,0,0,1,.328,1.622l-.941,2.637a2.66,2.66,0,0,0,.454,2.588l5.928,7.183,2.976-6.178Z" fill="#ffc2b0"/><path d="M435.886,214.149s-12.752,9.828-14.71,39.747c0,0-.277,3.318,7.093,5.307s12.406-3.709,12.406-3.709S449.251,235.633,435.886,214.149Z" fill="#fff"/><path d="M459.936,191.1l2.084,12.015a5.506,5.506,0,0,1-4.5,5.235c-4.577,1.136-5.991-1.819-5.991-1.819L449.46,193l10.476-1.9Z" fill="#ffc2b0"/><path d="M435.2,191.559c4.95,9.591,15.874,13.771,24.4,9.336s11.423-15.807,6.474-25.4-15.872-13.771-24.4-9.336-11.424,15.806-6.475,25.4Z" fill="#ffc2b0"/><path d="M447.538,189.757a2.237,2.237,0,0,1-1.963-.624c-.894-.911-1.26-5.746-3.6-6.152-3.654-.635-11.078,5.08-14.091-7.188-1.566-6.376,1.281-8.633.657-12.166,0,0,.033,1.819,16.451-2.145s24.358,9.853,25.962,16.809.193,19.092-10.885,22.634c-1.836.587-10.837-4.408-10.775-5.277s3.053-1.336,2.2-3.688c-.707-1.96-2.066-2.493-3.961-2.2Z" fill="#173d7a"/><path d="M468.8,334.472l11.627,89.071a7.7,7.7,0,0,0,3.193,5.864,8.947,8.947,0,0,0,.994.562c-2.412-1.811-9.461-76.572-10.764-84.889S468.8,334.472,468.8,334.472Z" fill="#d8892b"/><path d="M439.63,256.473l0,.3a448.69,448.69,0,0,1,.451,52.88c-.165,3.092,1.546,5.782,4.027,7.913a446.3,446.3,0,0,0,0-68.016c-1.565,5.35-4.475,6.928-4.475,6.928Z" fill="#fff"/><path d="M258.384,471.035c-18.729,10.814-49.1,10.814-67.828,0s-18.731-28.348,0-39.162,49.1-10.813,67.828,0,18.731,28.348,0,39.16Z" fill="#c4d9e8" opacity="0.5"/><path d="M243.925,436.631a30.261,30.261,0,0,0-3.843-1.838l.039,0-7.394-3.278.559,1.292a47.737,47.737,0,0,0-17.336-.186l.345-1.432-8.7,3.853.052,0a29.7,29.7,0,0,0-3.252,1.588c-10.914,6.3-10.914,16.519,0,22.819s28.61,6.3,39.525,0,10.914-16.517,0-22.819Z" fill="#052761"/><path d="M233.422,442.581c-5.114,2.952-13.407,2.952-18.521,0s-5.114-7.74,0-10.693,13.407-2.951,18.521,0S238.536,439.629,233.422,442.581Z" fill="#0948b3"/><path d="M224.161,439.272a4.452,4.452,0,0,1-4.452-4.452V378.537h8.9V434.82a4.452,4.452,0,0,1-4.452,4.452Z" fill="#052761"/><path d="M227.294,380.58a7.115,7.115,0,0,1-6.428,0c-1.775-1.025-1.775-2.688,0-3.711a7.1,7.1,0,0,1,6.428,0C229.067,377.893,229.067,379.555,227.294,380.58Z" fill="#0948b3"/><path d="M224.161,380.47a3.61,3.61,0,0,1-3.61-3.608V323.954h7.221v52.908A3.61,3.61,0,0,1,224.161,380.47Z" fill="#052761"/><path d="M276.058,351.676v-2.07l2.927-.424,3.276-2.451a2.2,2.2,0,0,1,2.159-.08l2.418,1.4,2.4-.345v2.1h-.011a.793.793,0,0,1-.551.633l-7.631,3.4a2.4,2.4,0,0,1-2-.074l-2.541-1.467a.736.736,0,0,1-.43-.617h-.012Z" fill="#2672f5"/><path d="M276.373,349.049l5.888-4.406a2.205,2.205,0,0,1,2.159-.08l4.393,2.535c.613.355.549.941-.14,1.248l-7.631,3.4a2.4,2.4,0,0,1-2-.073L276.5,350.2C275.963,349.892,275.908,349.4,276.373,349.049Z" fill="#052761"/><path d="M266.438,359.043a4.8,4.8,0,0,0,2.358-.582l9.149-5.283a1.057,1.057,0,0,0-1.058-1.829l-9.147,5.282a3.021,3.021,0,0,1-2.6,0l-15.206-8.807a1.055,1.055,0,1,0-1.054,1.828l15.206,8.808a4.776,4.776,0,0,0,2.355.583Z" fill="#2672f5"/><path d="M178.468,339.688l14.692-8.54-8.232-3.718-7.043,4.993Z" fill="url(#a)"/><path d="M272.812,327.01a19.337,19.337,0,0,1-2.473-1.537l-31.306-22.944c-5.652-4.144-11.473-5.21-15.972-2.929-.117.059-.219.142-.331.2l-.034-.009-43.237,25.084,3.885,1.293,15.142,6.867,20.6,14.614,16.256,8.626.738.158c3.791-3.193,8.035-5.933,10.364-10.588,4.023-7.045,15.231-9.061,21.821-14.771.665.423,1.33.817,1.993,1.161,1.362-1.337,1.729-3.239,2.554-5.229Z" fill="#0948b3"/><path d="M286.545,316.664a2.873,2.873,0,0,0-1.773.619l-.008-.01-42.312,24.492L244,348.093l1.587-.759c-2.422,3.781-6.139,6.267-9.506,9.1l4.783,1.012,41.438-24.11c.19-.084.387-.154.573-.249a10.313,10.313,0,0,0,1.6-1.014l.072-.043-.026,0c3.154-2.436,4.936-6.674,4.936-11.966v-.5A2.909,2.909,0,0,0,286.545,316.664Z" fill="#052761"/><path d="M228.6,298.431a17.726,17.726,0,0,1,8.307,2.688A17.721,17.721,0,0,0,228.6,298.431Z" fill="#eaeaea"/><path d="M247.871,343.737v-.5a2.908,2.908,0,0,0-5.816,0v.5c0,3.887-1.235,6.743-3.392,7.835-2.436,1.232-6.139.326-9.9-2.434L197.453,326.2c-4.818-3.531-9.754-4.8-13.893-3.7l25.856-15-29.958,17.381,3.885,1.293,15.142,6.867,20.6,14.614,16.256,8.626.738.158c3.791-3.193,8.035-5.933,10.362-10.588a12.145,12.145,0,0,1,1.422-1.95C247.863,343.844,247.871,343.793,247.871,343.737Z" fill="#2672f5"/><path d="M235.327,358.875c-3.427,0-7.2-1.394-10.9-4.1l-31.308-22.942c-3.763-2.758-7.463-3.668-9.9-2.434-2.156,1.093-3.392,3.947-3.392,7.836a2.908,2.908,0,0,1-5.816,0c0-6.158,2.4-10.9,6.578-13.022,4.5-2.278,10.318-1.212,15.972,2.929l31.307,22.943c3.765,2.758,7.468,3.666,9.9,2.434,2.156-1.094,3.392-3.947,3.392-7.836v-.5a2.908,2.908,0,0,1,5.816,0v.5c0,6.157-2.4,10.9-6.578,13.022A11.154,11.154,0,0,1,235.327,358.875Z" fill="#0948b3"/><path d="M210.723,410.165s-5.9-2.972-9.518,1.456-8.8,14.88-8.958,21.941,5.59,6.586,9.007,4.914,13.4-16.152,14.007-18.99-.714-6.676-1.674-7.427-2.864-1.894-2.864-1.894Z" fill="#173d7a"/><path d="M212.009,408.744l.273,6.109a3.463,3.463,0,0,1-1.726,3.178,6.807,6.807,0,0,1-4.549.709c-4.441-.716-4.84-1.984-5.156-8.092s11.158-1.9,11.158-1.9Z" fill="#e8a200"/><path d="M189.139,398.42s-5.9-2.975-9.518,1.453-8.8,14.881-8.957,21.943,5.588,6.586,9.007,4.916,13.4-16.156,14.006-18.994-.713-6.674-1.673-7.424-2.865-1.894-2.865-1.894Z" fill="#173d7a"/><path d="M190.426,397l.272,6.108a3.463,3.463,0,0,1-1.727,3.179,6.793,6.793,0,0,1-4.549.706c-4.441-.713-4.837-1.982-5.155-8.09s11.159-1.9,11.159-1.9Z" fill="#e8a200"/><path d="M243.039,284.844c-1.746-28.395-30.752,4.18-30.752,4.18l-19.853,19.459-17.876,19.639a17.611,17.611,0,0,0-4.44,14.154l7.23,55.066a5.413,5.413,0,0,0,5.428,4.7,18.335,18.335,0,0,0,2.679-.236,6.728,6.728,0,0,0,5.976-7.139l-1.323-51.5,37.544-22.631s17.132-7.3,15.387-35.693Z" fill="#fdd762"/><path d="M264.622,295.664c-1.744-28.395-30.75,4.178-30.75,4.178L214.018,319.3l-17.876,19.64A17.618,17.618,0,0,0,191.7,353.1l7.231,55.065a5.411,5.411,0,0,0,5.427,4.705,18.3,18.3,0,0,0,2.679-.235,6.729,6.729,0,0,0,5.976-7.139l-1.321-51.5,37.542-22.633s17.131-7.3,15.386-35.691Z" fill="#fdd762"/><path d="M247.463,204.514c21.991,9.117,21.549,22.117,21.549,22.117s-4.307,47.657-2.838,79.485c.616,13.3-70.69,14.32-60.056-21.176,12.539-41.854,7.839-75.736,13.708-80.847s21.947-1.937,27.637.421Z" fill="#fff"/><ellipse cx="11.342" cy="8.349" rx="11.342" ry="8.349" transform="translate(234.647 202.31) rotate(14.442)" fill="#ffc2b0"/><path d="M245.225,222.831a16.15,16.15,0,0,1-4.017-.517c-6.618-1.705-10.949-7.175-9.657-12.2s7.732-7.714,14.348-6.01,10.949,7.175,9.657,12.194a8.41,8.41,0,0,1-5.314,5.6,13.49,13.49,0,0,1-5.017.926Zm-3.354-17.139c-4.082,0-7.5,1.9-8.284,4.951-1,3.9,2.651,8.218,8.146,9.634a12.529,12.529,0,0,0,7.722-.324,6.365,6.365,0,0,0,4.063-4.175c1-3.9-2.65-8.218-8.146-9.633a14.043,14.043,0,0,0-3.5-.453Z" fill="#fff"/><path d="M238.646,203.522s.189.881-.191,7.851c-.119,2.191,7.552,4.238,9.534,2.254s1.189-4.045,1.665-11.5-11.008,1.4-11.008,1.4Z" fill="#ffc2b0"/><path d="M249.653,202.126s-1.888,6.914-11.2,9.564l.143-6.282Z" fill="#ea9c92"/><circle cx="16.928" cy="16.928" r="16.928" transform="translate(222.237 171.871)" fill="#ffc2b0"/><path d="M243.053,189.42s-9.32,3.992-15.774,4.038-5.03-5.358-5.03-5.358l19.157-2.768,1.647,4.088Z" fill="#ea9c92"/><path d="M225.355,190.472s8.119-3.447,15.24-2.01a7.468,7.468,0,0,1,4.3,2.558,2.537,2.537,0,0,0,1.3.942c1.263.286,3.33-4.954,5.785-5.074s4.094,1.619,2.08,4.841-1.332,6.829-.4,7.346,10.748-7.006,2.084-24.171-30.676-7.92-34.1-4.441c0,0-3.606,3.142-6.539.346,0,0-3.288,24.627,10.247,19.663Z" fill="#052761"/><path d="M256.677,261.448v12.877a5.247,5.247,0,0,1-1.713,3.878L228.511,302.32l3.005,4.6,34.94-23.4a7.094,7.094,0,0,0,2.893-5l2.357-24.393Z" fill="#ffc2b0"/><path d="M267.151,220.192s8.024,12.069,11.015,43.838c0,0-13.709,4.435-21.489,1.917s10.474-45.755,10.474-45.755Z" fill="#fff"/><path d="M255.212,235.453s-3.144,16.814-3.321,24.717a5.04,5.04,0,0,0,3.321,4.871V235.453Z" fill="#b1aeb5"/><path d="M248.348,319.066l-5.847-.772L204.759,296.5a5.247,5.247,0,0,0-4.722.2l-26.743,15.435-3.537-.468v3.52l0,0a1.373,1.373,0,0,0,.811,1.238l42.774,24.7a5.249,5.249,0,0,0,4.72-.2l29.126-16.811a1.906,1.906,0,0,0,1.155-1.588v-3.461Z" fill="#173d7a"/><path d="M219.988,305.3l-2.682-1.548h-29.48l-14.532,8.386-3.537-.468v3.52l0,0a1.373,1.373,0,0,0,.811,1.238l42.774,24.7a4.417,4.417,0,0,0,2.436.457Z" fill="#396caa"/><path d="M171.326,311.873l-1.569-.207v3.52l0,0a1.373,1.373,0,0,0,.811,1.238l.754.436Z" fill="#5793ce"/><path d="M213.776,341.322a5.488,5.488,0,0,0,4.012-.25v-5.988h-4.012Z" fill="#274f89"/><path d="M213.347,337.6l-42.774-24.7c-1.209-.7-1.058-1.918.339-2.726l29.125-16.81a5.244,5.244,0,0,1,4.722-.2l42.772,24.7c1.21.7,1.059,1.918-.339,2.725l-29.126,16.811a5.247,5.247,0,0,1-4.719.2Z" fill="#fff"/><path d="M212.622,333.86l-35.565-20.534c-1.006-.581-.879-1.6.283-2.266l15.6-8.777a4.371,4.371,0,0,1,3.927-.162l35.565,20.535c1.006.58.879,1.594-.281,2.266L216.549,333.7A4.371,4.371,0,0,1,212.622,333.86Z" fill="#d4ecff"/><path d="M201.691,292.563l-.443,2.951a21.841,21.841,0,0,0,.192,7.568l.527,2.6a3.66,3.66,0,0,0,2.93,2.874,2.02,2.02,0,0,0,2.367-1.761l.706-6.309s1.615,2.114,2.393,2.114-.871-6.319-2.634-9.894S201.691,292.563,201.691,292.563Z" fill="#ffc2b0"/><path d="M216.19,245.657l-4.59,9.083a17.786,17.786,0,0,0-1.878,6.895l-1.993,31.072-6.038-.145-2.741-34.893a12.873,12.873,0,0,1,.155-3.227l3.132-17.693,13.953,8.908Z" fill="#ffc2b0"/><path d="M211.9,339.977l-3.587-4.682L170.6,313.457a5.25,5.25,0,0,1-2.187-4.189l.034-30.879-2.17-2.83,2.038-1.18,0,0a1.37,1.37,0,0,1,1.479.085l42.743,24.747a5.25,5.25,0,0,1,2.187,4.189l-.037,33.628a1.9,1.9,0,0,1-.8,1.792l-1.988,1.154Z" fill="#173d7a"/><path d="M185.814,322.27l-2.679-1.553-14.709-25.549.016-16.779-2.17-2.83,2.038-1.18,0,0a1.37,1.37,0,0,1,1.479.085l42.743,24.747a4.425,4.425,0,0,1,1.611,1.884Z" fill="#396caa"/><path d="M167.236,276.816l-.963-1.258,2.038-1.18,0,0a1.37,1.37,0,0,1,1.479.085l.752.436Z" fill="#5793ce"/><path d="M212.923,299.487a5.47,5.47,0,0,1,1.786,3.6l-4.177,2.412-2-3.477Z" fill="#274f89"/><path d="M210.5,300.393l-42.744-24.746c-1.208-.7-2.191.039-2.192,1.652l-.036,33.629a5.248,5.248,0,0,0,2.185,4.189l42.744,24.746c1.208.7,2.191-.04,2.192-1.652l.037-33.629A5.248,5.248,0,0,0,210.5,300.393Z" fill="#fff"/><path d="M231.516,306.916l-.686,1.42a9.473,9.473,0,0,1-3.571,3.959l-4.246,2.618a4.228,4.228,0,0,1-4.335.1l-.144-.087a2.554,2.554,0,0,1-.36-3.925l4.436-4.561s-2.492,1.91-3.191,1.141c-.512-.564,2.418-3.313,4.667-3.4a8.873,8.873,0,0,0,4.426-1.856l3,4.6Z" fill="#ffc2b0"/><path d="M220.267,204.026s-16.265,17.7-22.826,33.933c0,0,5.562,10.021,19.175,13.952S220.267,204.026,220.267,204.026Z" fill="#fff"/><path d="M213.553,250.861l2.638-25.466-6.212,23.859a35.466,35.466,0,0,0,3.574,1.607Z" fill="#b1aeb5"/><path d="M232.448,200.455l-4.37-1.2s2.086,3.283,5.133,4.119,3.52-1.742,3.52-1.742Z" fill="#fff"/></g></svg>